<mxfile host="Electron" agent="Mozilla/5.0 (Windows NT 10.0; Win64; x64) AppleWebKit/537.36 (KHTML, like Gecko) draw.io/24.7.8 Chrome/128.0.6613.36 Electron/32.0.1 Safari/537.36" version="24.7.8">
  <diagram name="Page-1" id="PKLuamNShe_HhlYoDQNN">
    <mxGraphModel dx="2853" dy="2352" grid="1" gridSize="10" guides="1" tooltips="1" connect="1" arrows="1" fold="1" page="1" pageScale="1" pageWidth="827" pageHeight="1169" math="0" shadow="0">
      <root>
        <mxCell id="0" />
        <mxCell id="1" parent="0" />
        <mxCell id="894s8jzJhBT3ak1L8qub-15" value="plusieurs users peuvent etre rattachés à un projet&lt;div&gt;Plusieurs équipement peuvent etre attaché à un user et&amp;nbsp; à un bench&lt;/div&gt;&lt;div&gt;&lt;span style=&quot;background-color: initial;&quot;&gt;Un équipement peut avoir plusieurs user&amp;nbsp;&lt;/span&gt;&lt;/div&gt;" style="text;html=1;align=center;verticalAlign=middle;resizable=0;points=[];autosize=1;strokeColor=none;fillColor=none;" parent="1" vertex="1">
          <mxGeometry x="-546.5" y="220" width="380" height="60" as="geometry" />
        </mxCell>
        <mxCell id="894s8jzJhBT3ak1L8qub-20" value="Plusieurs salles peuvent etre rattachés à 0 ou plusieurs projet&lt;div&gt;&lt;br&gt;&lt;/div&gt;" style="text;html=1;align=center;verticalAlign=middle;resizable=0;points=[];autosize=1;strokeColor=none;fillColor=none;" parent="1" vertex="1">
          <mxGeometry x="-531.5" y="90" width="350" height="40" as="geometry" />
        </mxCell>
        <mxCell id="894s8jzJhBT3ak1L8qub-21" value="Plusieurs bancs peuvent etre rattachés à une salle&lt;div&gt;Un banc est rattachée à une salle&lt;/div&gt;" style="text;html=1;align=center;verticalAlign=middle;resizable=0;points=[];autosize=1;strokeColor=none;fillColor=none;" parent="1" vertex="1">
          <mxGeometry x="-526.5" y="130" width="290" height="40" as="geometry" />
        </mxCell>
        <mxCell id="894s8jzJhBT3ak1L8qub-25" value="Plusieurs utilisateurs peuvent etre rattachés à un bench ou plusieurs bench" style="text;html=1;align=center;verticalAlign=middle;resizable=0;points=[];autosize=1;strokeColor=none;fillColor=none;" parent="1" vertex="1">
          <mxGeometry x="-566.5" y="290" width="420" height="30" as="geometry" />
        </mxCell>
        <mxCell id="894s8jzJhBT3ak1L8qub-26" value="Un bench doit etre obligatoirement rattaché à une salle" style="text;html=1;align=center;verticalAlign=middle;resizable=0;points=[];autosize=1;strokeColor=none;fillColor=none;" parent="1" vertex="1">
          <mxGeometry x="-531.5" y="175" width="320" height="30" as="geometry" />
        </mxCell>
        <mxCell id="y0FfI4JKlyb5fJh35VuY-8" value="" style="shape=image;verticalLabelPosition=bottom;labelBackgroundColor=default;verticalAlign=top;aspect=fixed;imageAspect=0;image=data:image/png,iVBORw0KGgoAAAANSUhEUgAAAl0AAAK6CAYAAAADw+kRAAAgAElEQVR4Ae29PY7sPLee7QkU4MCRE+MEBhwZOGPYPQInvQEPoGKjko2dVGLUDE5yssKTOv7i6sgDcNI9i5oBP5ASyUWKVEkqiaKkq148b3Wp+LvWtRZvUtrd/+Ff/uVfFP9hAxiAARiAARiAARhYloH/gIGXNTD2xb4wAAMwAAMwAAOaAUQXJ32cdMIADMAADMAADBRgICm6/vVf/1WdTif+wwYwAAMwAAMwAAMwMIIBraFyJ5uIrhGGRIgixGEABmAABmAABvoYQHQhrNilwAAMwAAMwAAMFGAA0VXAyH2ql+/YFcEADMAADMDAMRhAdCG62N3AAAzAAAzAAAwUYADRVcDI7GCOsYPBz/gZBmAABmCgjwFEF6KL3Q0MwAAMwAAMwEABBhBdBYzcp3r5jl0RDMAADMAADByDAUQXoovdDQzAAAzAAAzAQAEGEF0FjMwO5hg7GPyMn2EABmAABvoYQHQhutjdwAAMwAAMwAAMFGAA0VXAyH2ql+/YFcEADMAADMDAMRhAdCG62N3AAAzAAAzAAAwUYADRVcDI7GCOsYPBz/gZBmAABmCgj4H1RNefh3o+H+ovouegu4sPdb5e1fkXAdoXoEO/+7zc1OU3thxqr22WI2bG+w2bjbfZvvJIbbkR0YXoW0n0kQznTIa1JZY550ZbdhEkZsazgM3G28zyto/32nJjcdH19+upuq+nevzRDv5Ul9tN3dr/rucPJwi04ez12/WsPqxY+nVWV1HH7/bzbX2cr76t20V92rZm7f+kcmOe0n+2Tnb++f5P2ToTbJZtK9N/VN76VPr66Eli+PxDf1lb3i6fJm6qZabiOMvFbD5mMpyfTipr/575J+sQM24dGBwbL2yW83PS/mZ9CGNN5qtsnWgMfm3KM5PnbIP993Ces39+/nmbpe0f2ivOjYM5ctpgPgFaXHS5yXJ7cXwiWQAA54/ibbMDndP2OonJpD5n27Q1X8J9z5bEzHj7YbPxNquF93nGUVtuRHQVFxvzgLT9QCIZzunD2hLLnHOjLZsziJnxLGCz8TazvO3jvbbcuJ7oQuwc/KRrHwF99ITG/OEYBmAABoYzgOhC/CH+YAAGYAAGYAAGCjCA6CpgZHYBw3cB2ApbwQAMwAAM7JUBRBeii90NDMAADMAADMBAAQYQXQWMvFfFzrzYjcIADMAADMDAcAYQXYgudjcwAAMwAAMwAAMFGEB0FTAyu4DhuwBsha1gAAZgAAb2ygCiC9HF7gYGYAAGYAAGYKAAA4iuAkbeq2JnXuxGYQAGYAAGYGA4A4guRBe7GxiAARiAARiAgQIMILoKGJldwPBdALbCVjAAAzAAA3tlYB3R9c+3Uj93VPVRBR9/7HxW9u8/Sn3/Q5Lea5Ju5vVXPZ5P9fiDn4f7GZsNt9U+uaoxNyK6jip81pw3ogvRNYG/v19PpdS3uk+ou/3FBwEx3ofYbLzN9iW+EF02WW7spKtJ9qp9Ddht6vnZ0l9/xQKrk4D95qiLx0mdEF2CifeTXH2J5a58BGjeB8SMzQ097+NElx7DnmIMATFeQOzdZnGc7Yn39/Oi5qW+3HhSnHT1JHkT5FpAPR/q76tyie/1IvEMRJcFaW8Lgp3XwHdE1wFEl18AjFiaGEPjF1rL4N5ibO8Cwvptzve92yxk3MQZj+0EuRXRZYXJlk66ekSXdqh/+UXGLhTjRJdOEKK1PT+jg+gKEoPlZep7fYklXAzMyWZ76tTExMOfhAkxZhYNGwLuum5LvsI4kzFoNzjymqu5+cVo7wJiTrFl29q7zcI4C9YbcbdFx4B75lPn3p+HWGvCeErHoLXn9t7ry42cdA1Y/LwYskk9uTgmhGQQBFZwmvcwWHR7IRz6+3luySTHGoxlhUBCdA3gbrhfQnaG11uOjZBvk8hb0dMkdZ/o3dijzY2s48fZbdfHZBOnbnE5hWV9GzXYZ8oY9i4gptjkVZ2920wzLl5uoxLbRcSCzr1ChOn4czEUxeD2YyZeV2O7rPOZ24uDBYgVX14MNQuIgD7aTevvHdBBPyIInAgT7ZgffT97gD+YA6LrAKJL8CwWg1xMdK4nGZFxY+NR9CMWkxOia1bGgvgNctk6C9ew8RxBdPkNjFmP7BrUiisfHW25KK5k3LkN0Gb8+5q9GueE6BoJmAPbQC2E0VsnXXIxeQ3SsIRTcTtR4G9+PiMZmnu+9SWWPM8yyUs7dK4nGZHtvlpQZdmKY2EwO6/mu4c5zj2HvdssYtzFjJ63OMGSGxBXprG1jLv68sj7PNQ4J0TX4KTXAKCdaH7HmIbX/euoBvL4d49JoOUCk9qF63bTp2Lvgxf2XUF7UeBXN76RTKw9/voSS7QYCHtmYyK6teHiTNSN40a3Fcec94Ueg9gUBe1UEAOjx7N3AbGET/ZuszDOfDw065G91W6u27Uqyr0yHk05cSrtY2kJ35Rps77cyDNdL4/gG2D9Ia38l4xmYTBfPdXjy//C104dd9tDB0n0cpBH37nrZeAsGmBR4Bfte/RiV7/960ss4WIg/SuTvLyuf/bxpH/LROpfDMfttpsdF1L+VotuL4hDe9tls/7fu4BYIs72brOeNUNvYtrX80v/w5XXtxeHxeASflquzfpyI6LrpeiKFwY+zxAgiK5ZuasxsSwSJ4fmZu8CYoa80hHU2GyROOzYeQnfzdNmjbmR24sbAmg3AXToxXOeZCJZqDGxyPG99bPYsc/1S1bfGs9q+QIBMd5v2Gy8zebPT2uOocbcuI7oWi1x7QuoNWGmb1iCARiAARiAgXEMILoQgLPe6iIAxwUg9sJeMAADMHAcBhBdiC5EFwzAAAzAAAzAQAEGEF0FjMwu5ji7GHyNr2EABmAABnIMILoQXexuYAAGYAAGYAAGCjCA6Cpg5Jzi5Tq7IRiAARiAARg4DgOILkQXuxsYgAEYgAEYgIECDCC6ChiZXcxxdjH4Gl/DAAzAAAzkGEB0IbrY3cAADMAADMAADBRgANFVwMg5xct1dkMwAAMwAAMwcBwGEF2ILnY3MAADMAADMAADBRhAdBUwMruY4+xi8DW+hgEYgAEYyDGwjujSf8T2546qPqrg+3VW1+tZfRx1/jPP+/NyU5ffJLlcktvH9Q91vl7V+Rd+HuxP8szB19g6YwbRNfMCODghHLlfkuGsyRDRdQQhUucCUnW+I8/Mmmeq9nVyPa0zZoqKrvuPSry+1V0bTAfI7aZu7X9y564XFXv9Jk5IPs5Xf/12UZ/O8J/qItq6nj8cfNk6G+w/b7MJ8z/l6+Tsn+//pFJ1Qttbn7J7n5bMQn+5+Lh8GtZT9jf9ZDkP2xsUMwWY0WMOuSkf53nOJ9gsa/90zMR9Wz9L/0zjZ79CNeQlzjMFfNa7nk3ov+I4G59nMpzPGedRjNUWM0VFl0sO3F50ItDZxAnG/SZDN1cdFEI8u+tHssGMc9WJT25SsOceY6jOXXvVrJFnjr3OnOqMGUTXjItf1QmopnmSDGdNhoiuPYqseE51LiBV5zzyzKx5pmpfJ9e3OmNmHdGVNFCcZPi8PcjxGT6DARiAARiAgRwDiC4E4MF3QySHXHLgOmzAAAzAwLwMILoQXYguGIABGIABGICBAgwgugoYmZ3CvDsF7Ik9YQAGYAAGtsgAogvRxe4GBmAABmAABmCgAAOIrgJG3qIaZ8zsImEABmAABmBgXgYQXYgudjcwAAMwAAMwAAMFGEB0FTAyO4V5dwrYE3vCAAzAAAxskQFEF6KL3Q0MwAAMwAAMwEABBhBdBYy8RTXOmNlFwgAMwAAMwMC8DCC6EF3sbmAABmAABmAABgowsI7o4g9eHxvuPw/1fD7U3wKAH2GXxt9enHcnWiczdf4duTptZXnAZnX7x/ppqfc6/Y/oenfh1wJSfav7u+2I+vcfpb7/eQfEv+rxfKrHn3faWLAuomtW0b2+6PpUl9tNXc8fs84rWDB+X9TtdlGfIk6C7ydcf99uJZN6yb4WjP0Jfpru5w3a7PCcz8lenf7fp+gyQkiZ1/Prr1gItBhprs8mlF6KrnEC6O/XU6mfux+zFih2yObdC7xAnJlyQmiZz77s9MQ1ZxC0bSG6vH9nWITeFw/v+nic6Jo03peL0bgE+3G+qtvl0/vh11ldbzd1c/95gReM15S7qvOv1mbmsy+7XJyNm99y43iXlZL1x9hMM1zCjy/mvxrn4fxNfFzP6sPmp2Kcv7CPHc+g9zH+n7Pf/rb2Kbpah2gBE4oua4y7+p75dCqf5EaIrpRQigSKFlpWlHnRle6jI+AGgWpttOB7NKeO7bj97MXAAJ8FomBA+Y69C9dZZrwjEmxqAdHXxCKjx2hFmR9vuo+OgFvEnum+1/Zl3f2PsVkoOuqd14g5jeJczD+KBWuLMpzPue6MsNUiMZueyyZElxEP7rTHn94YAZK4biEZJ7rkKdiQ23uyvB+T7TscmziB6nFucryxQNGCpH0eyoquZD3TT0lxmQbM2iN4j+ckbNL4umvPoL4o33td7xrlacbQehsr50XBax98Xq7qfNa36ppTHX9LsEm6Z30C1H53+d22Z3bf9hTInwaYJOxOhqLbi7KOFTPymqvn20v7UifObt+2rBFHri1xAtXjQz1uP+92jvFCo8fajtvaN1nP9CMWrJ5+7Zinvde5gEyby2tO52l3jM1i/gVLEbcuLjQzl3OWzyA+bAxk+Vibc8twn81smVL+e7efvrm82/b0+hsQXQOFQ+J0ZIwYsQKmCXbd5zChdDp1x2eEg7tFmD6F6iaVTLlIoOhx2tM7M+avh3q6vmIQGmH43vNhcZszfI7mZG1h7DbnA/Y6WSK6glMzI1LcAqCTqF1c9M9COFkRot/lbRchRqzf9HsgSGzddoExi4/wgxUxsv7rn7sJP2x3aILNlIvGrMdohZkZ71kvsOJ2ZLB46jZvyi3GwXczxItpLzPuRfqaa8xrtzPGZhH/Gc5PJ8GhiQ3vd8nMKVv/lU1E+61vy3De9Ks3XXmOS3D+yj5jvh/j/zHtvld2A6LLnih1RVBzKuKOutxtN5vAh4suLZziV7c/2274HouuWDzFn3MOy5TTAkUOTQgsLbrMS1wLx3ZSoZjM9V34ekJ0mblk5mGSjjvNECcjbdKLT2Z08rPX/Luot7OFyogCeyr1Ym5xWf+5m+wNSx3hmi6nfWRFSuiv1hdCsPg+x3AX9xsn1Phzru1MuYglKdb1eA1HYg5xnE2bU26MqeuZcb/wdzzOY30eY7OYL/E5ZsNuQvR1t4EJNx7TeRD9Gt/Gc4g/p1jR1zLl4rk4pnW/Ded50XVS0+eVG+eS1zM2WDlmNiC6rFMi8WXEiBBGb510xcLJ9jnkPa4bi6f4c67NTLmEQLGJ0woq/W5Pv+x3zXumzZWhO2XmxElXjo3+62MSYVhWJyW7U4+TfdvnRNFlBVjIY9NmOIb+ufn68fjihBp/zrWbKRctoL5fv9DocafnlWlz1jgr0UfOZlu9PsZmEV+OB92G9Lso58o09pEbj2mM63ZE+0uJLiEUPee2X/1uT79jv4+xZ1x3jc91jndDoqtxmhUaZuF2D8NrceEfMLcgDT/pak6E0sLlFSyx6Arbak7jhDjsScTJ8WYEip6js4W5xZl6Dq07NmubVd975tTYi2e6xvhnTIIPyppdrz0BtEk34j0o0+zm7bNOcoxywTlFdWQ5/XNevER9B7HSHZ9spzldyy0WYbvBWG0f0QIqx+xtpsdgRapsszs2WX+en+tcQOaZm7TlnD+PsVnoQ8OTOQXSbXifN5y1MRMxI7ky5ZLi5tX8wnFo+5bhXPSrN1r2NM/Gh3kXZYLrr+a01vdj/F9ujPWLLr1Ay9tr4pkfLTqa11M9vr7d7cVm4bbfNe/Nc01ahEQv1170nbuec0ZUXjdr64gxP7/uw39nlqkXCY4egeJF10k1IjQUXsYOmVt2qybLnjmZcSVOLVcdb+UJxouCHKv+ui7rb7lKkZJPqM1CY+tZkebb1L6RC4797Pvxi5bxoxFl/e15f+tx2bLtu13MRDvX86c6X+V8wvH59k4qKQqjBVSWD+zb9ilvwRj7uNs0Pf2+xVGdC4i0U30/j7FZxJllTPvMiJCGvev57H+1RMRMHANBrMn2khxE/WvmbZ0inIfx38R8GOtlOJ8zfsb4f85++9uqX3QlAe2fVH3BP3y8swmllICrxZavRFct49zIOAJR8GLMY8qOiaOl2h0zhjFlZ1tAzIIYLk5jxjG8bJ0LyPDxD8+B87WJzbbH+Zyc1Ol/RFffImWES3Qy1n6cdityGFDBCVbf+LLfVfoslx0voiv4F4XvLjJjBM+Ysv3j0glNnEC9c9IjdvLydEz/nH6Galgc9Y/fP6v1qlz++5JJvWRf89g3b7dS7ddls+b0SMSMO8EdeEJr8+fI9/djvi47DueqznGvI7pGQjPcyKWCmX7wCQzAAAzAAAzAwDgGEF0IwFlPXQjAcQGIvbAXDMAADByHAUQXogvRBQMwAAMwAAMwUIABRFcBI7OLOc4uBl/jaxiAARiAgRwDiC5EF7sbGIABGIABGICBAgwgugoYOad4uc5uCAZgAAZgAAaOwwCiC9HF7gYGYAAGYAAGYKAAA4iuAkZmF3OcXQy+xtcwAAMwAAM5BtYRXfyZl2PvKEr9ctSDcPb+L9MlQeYSZD3XK/+Fx1VuXrFZPfyuk2NqzI2IriqTxTqAFgtQRNesorvGxFKMpcPELwJiPFN7spmei1Kz/iWUOfJw5RvbGnMjouswSbsiITdHsA/xW+UJYfwikvZhjYllrrnRjvX5ngSEndPS70vb7K6+7V+Jez7UX5GTzN/Qbb/7/meOeQ4QXaPynR77Uz3++LHJMZuht3PS173Ya+Ys56Tzj//et1dD7NaYGxFdIlBqgOQQY0B0cdJF3I1kYGkBUddiOU8eLGSznnxWdNEfIbpSQikUV54HeT09n66Am8d/fgxT20uP9/12p45H16tfdGmgfx7maLXZOHyru03YGjL3stc1AN/q+0d/8VSPr6ZMrUr8Hedttm5Pkpp1TiOS0Kz9Wj4LvY9JLPcfHxMmQr7+usU/2OnKXe6P3hMrpVwc2lhbN3lt2Wfjx15IQBRidvz8p7A20mbBeiJOgXS+cutM4lSnJ58lY1P2E52QJe0iynfWsWhs6ufu4jnZlvFvs0a6dbT1uRRXsq673pNPXZnK+Enaf+UxbkN0KaXscaY2ogHPwCaSvwbCANwcf+oyuqy51gOLhIufpyS2CXV6ktSsPjiI38ckFhcTOvHIGHLx0/jTCLCfuzLv6lvd2+T+/c/IhWzlBDcrT6vOBbuP9+UYmw0tmyjXk886sRmVtXE2ZG5dYROdMA3Nd5lyTawLddkKuKbfh/ruE4hR/hgynxJlOvZfNYab3LoN0SWc7cDrgGPVu30/GdFlxFqn7AShUIGzSkBapI8o8SzW50H8PiaxhGV9rLi4spy3Pvr/7PMczmeJRcfW4X3AKcPU3IPdx+eJcTbTsaFfdoPv+9NxIl/iFEwz72Kj69sw3k7tJka2pU+Qh5xONXWDk644v8Wfc/GYKdfJAW19fd28xDrsbdPOuccGnbK5cS1wPbb/mmOxfSO6FnC0NS7v3SRkbFIqQDPJZW9+GZNYwrKIru2wME5AbGdemRwxS16eZjMdI/plxZf57IRRos2efBbGW0I4jZhnRxTF+S3+nGs7U67TflvfXjfiy9kh8lumzbU5jO2/9nh0/9sVXRp0fdtDgOFvLzbXncErBaIGAFYZQ0+SmnU8B/G74zyXZMX1sKwXXSdtK7GT1eX0DtwmXL+bTyw6ov1Z/Ue74uQMu49na7rNHPen5o6JO2HScRL9qz8fG5EQaeta8WbGH61bY+Ykx9Rtqz2Ny4miIJZE3Ivrnfbb7/x1bc/EM22n98TkGBuMLRvmu65/xrY3R/ntiq7W0c2exOxLWgHmgXIGP8jiOwcQRdpAdInF9P1E4DgXCTTnx7CsjxVdXn/nXq0AcwnX+Wz6QpYbE9eHMIDdx3MyxmataHEB4Df0zbOP7RfmH5O0txeNgHIVmh9a0RPEkvnG35LUMSVfgShLxHBcXte1dXw/3+o+Yp3T9ZyQ7IirkEeXA0y5xk5hXX3Nz2+8n8L+5qyv52ltNWe777RVv+hKQPjOhKm7HOCDbesW8IXHMiIJDR57hTzWmFi2bM86xz5GQCwcVxXGQNpn2CxtF83HfEIpJeDy/ZZls8bciOjaTAIpC+uiQYPoWu2ka1G/Ekuz+jX0FQIitMeQfLgVm8WnbOIcbNDtwiG2SJSZIw9XvrFFdJGUF0zKiaDC3tgbBmAABmAABqphYJ2TLgCoBoDxu0fEHTaDARiAARiAgSkMILoQgAhAGIABGIABGICBAgwgugoYeYoapg67KBiAARiAARjYFwOILkQXuxsYgAEYgAEYgIECDCC6ChiZncq+dir4E3/CAAzAAAxMYQDRhehidwMDMAADMAADMFCAAURXASNPUcPUYRcFAzAAAzAAA/tiANGF6Nrv7ub3Rd0un/udH+ziWxjIM/DrrK7Xs/rARnkb7do2H+p8varzr7pEG6Jr19DVBVvxHRui66DJ9uDck9Ma7hFdB49/RNfBAWAhQHTBQHEGECDHzbuIruP63sQ9ouvgALDgFl9wOeki5hBdx2UA0XVc3yO6IsFR+R/JLC4OjrYwlEqGBxFdn5ebuvyOYuxoTO1+vnXu2qvOlaPyzKe6XM/qfLmp203/J58F+lQXc635zsaaibvLxZS/ns9NGZ4hq0jo1Rkz6zzTheiqCMwVFutRyfCN8SG6js3ZroRYnQvIrkTX7aau5w8TMx/na/uPcLTd5aZGC7BGkGnRddMiS+cZc01/d1Gfu+Lujfy7uh3qjJmiouv+oxKvb3XXztELcWI3oYPawG2/EzsJExj2egB7uDOxgaTbytbZYP95m02Y/ylfJ2f/fP9pn4W2T+0oZw7wXYuu0F/N7vzm/rXmeJ+F7Q2KmQLM9MZsT/8ha2IhnBDnec4n2Gxs/1F562fpn6qFz5oLr7adWC/67aR9KThxuSO63q5H+rRLx5g59eop29/nzPluTVtX2Teiy++6OenytqgS1oWTwahk+MZYXDJ8o40N+Mcl/w2MlUVoKot1LiBV+3NUnonElcsd0XVE14bWrjpjpuhJlwtQRNeGwJ26SPTUG5UMe9p5JTJc4nyjjVd9VPA9omvf/m3yZp0LiMvpFcRBZyyj8kwkrlzu0HYXtxd1m+L2IiddNcdenTGzjuiqMUAZ0/6EoEucNScGxtZZLInF/cXiGj6dRXTlH31xmx2XZyLhtsac6VPEDqJLGIOFhoWmAAMuGRboi2RHfMNAXQyMEl3kiP2tSYiuugKSBLl/fyC69u9j4hgf5xhAdB2cDUTXwQFgJ7W/nRQ+xacwAAMwAAPDGeCZrtwuieuIZBiAARiAARiAgRkZQHTNaEzU/nC1j62wFQzAAAzAwNEYQHQhutjFwAAMwAAMwAAMFGAA0VXAyEdT8syX3SsMwAAMwAAMdBlAdCG62N3AAAzAAAzAAAwUYADRVcDIqP2u2scm2AQGYAAGYOBoDCC6EF3sbmAABmAABmAABgowgOgqYOSjKflq5svf+CSJEt8HZqDOX45ZTX7cfWzU6X9E1+7BO/DxNaLrwAvugbknp7Xc17noIrpKxWad/kd0kaD2uzAjuvbrW+IW375koM5FF9GF6PqXf/kXlfrvP6QuapUGNKWgoZ+3WEN0EasvF2Zi7K0YW9W+WlTd1OV3zoeIru36NufTMdfr9D8nXasmjTEAUXZ0AkF0IbqI7yoZuP8o9f3PHDntU11uOeFV56I7Oo/B8ESG6/Q/ogugJwI9R8JcuA1E1359S9xu2rfziS6dQ/TielPX80dkkzoXXUTXwnnf5YY6/Y/ocg4qBQL9FEs6iK5oEYK9YuyRVxLs3dW3Srx+7qbsx/mqbrdb+99FfVob/jqrq7ved6p1U7fLp+g3teg2J2O2HynUpvT/ebHjvanb9aw+Xo55Qv+nfJ3x/Z9Urk52/j39Z+v0+KxI/8YPKf+vnwMRXTZIeBfJan0wZ1kcEV378ylxugufctK1kxxbdTwiunaRLGYRA1WDuqNkgOgi5oi1KhmYT3TxTBdrUm7NQnRVGfwAmwN2B9cRXcQcomvHDOhFNXe7UeevOhdd1pxSa0ud/uf2Ikl5v0kZ0bVf3xK3+PYlA3UuuoguRFfq13Hpa/yerpdBXQoe+pmUqBBdLMzE8IEZQHRNypu7iZk6/c9J124AQ5gdO8Hgf/wPAzAAA7UzgOhCdB14J0yCqj1BMT4YhQEY2BMDiC5EF6ILBmAABmAABmCgAAOIrgJG3pNKZy7sOmEABmAABmBgGgOILkQXuxsYgAEYgAEYgIECDCC6ChiZHcG0HQF2w24wAAMwAAN7YgDRhehidwMDMAADMAADMFCAAURXASPvSaUzF3adMAADMAADMDCNAUQXomu/uxt+Oep+fUvcbtq38/3txWkLH4IBu63FAKKL5L3p5N0bOIiu/fqWuN20bxFdiJ7e3L3j+EZ07di5R4XazRvRtemF2fmRGN2dHxFdiK6jxjeii4S+u4TughnRtV/fEreb9i2iC9Hl8vTBYhnRdTCHHwp0RNemF+ZDsXqwPIToQnQdNb4RXQdLdocCHdGF6CK+q2QA0YXoOtRaJPIQoksY46gQ7HbeiK4qF9zd8kYuGcwbogvRddQ8gOgiUQ5OlJsLEkTXfn1L3G7at4guRNfm1pOZcg6iayZDHhWgqueN6Nr0wlw1W+SNt9hCdCG6jhrfiC6S51vJs+rAQXTt17fE7aZ9i+hCdFW9diyYXxBdCxr3qFBVM29E16YX5mo4IkfMzhGiC9F11PhGdJFQZ0+o1QQTomu/viVuN+1bRBeiq5p1onAuQXQVNvhRQWPeJFkYgEhl6cAAACAASURBVAEYgIGjM4DoQnRtesd89ABm/ixiMAADMLAdBhBdiC5EFwzAAAzAAAzAQAEGEF0FjMwuZDu7EHyFr2AABmAABpZiANGF6GJ3AwMwAAMwAAMwUIABRFcBIy+lmGmX3RgMwAAMwAAMbIcBRBeii90NDMAADMAADMBAAQYQXQWMzC5kO7sQfIWvYAAGYAAGlmIA0YXo2u/uhl+Oul/fEreb9i2/HBVRs5Soqb1dRBfJe9PJuzfAEF379S1xu2nfIroQXb25e8fxjejasXOPCrWbN6Jr0wuz8yMxujs/IroQXUeNb0QXCX13Cd0FM6Jrv74lbjftW0QXosvl6YPFMqLrYA4/FOiIrk0vzIdi9WB5CNGF6DpqfCO6DpbsDgU6ogvRRXxXyQCiC9F1qLVI5CFElzDGUSHY7bwRXVUuuLvljVwymDdEF6LrqHkA0UWiHJwoNxckiK79+pa43bRvEV2Irs2tJzPlHETXTIY8KkBVzxvRtemFuWq2yBtvsYXoQnQdNb4RXSTPt5Jn1YGD6Nqvb4nbTfsW0YXoqnrtWDC/ILoWNO5Roapm3oiuTS/M1XBEjpidI0QXouuo8Y3oIqHOnlCrCSZE1359S9xu2reILkRXNetE4VyC6Cps8KOCxrxJsjAAAzAAA0dnANGF6Nr0jvnoAcz8WcRgAAZgYDsMILoQXYguGIABGIABGICBAgwgugoYmV3IdnYh+ApfwQAMwAAMLMUAogvRxe4GBmAABmAABmCgAAOIrgJGXkox0y67MRiAARiAARjYDgOILkQXuxsYgAEYgAEYgIECDCC6ChiZXch2diH4Cl/BAAzAAAwsxQCiC9G1390Nvxx1v74lbjftW345KqJmKVFTe7uILpL3ppN3b4AhuvbrW+J2075FdCG6enP3juMb0bVj5x4VajdvRNemF2bnR2J0d35EdCG6jhrfiC4S+u4SugtmRNd+fUvcbtq3iC5El8vTB4tlRNfBHH4o0BFdm16YD8XqwfIQogvRddT4RnQdLNkdCnREF6KL+K6SAUQXoutQa5HIQ4guYYyjQrDbeSO6qlxwd8sbuWQwb4guRNdR8wCii0Q5OFFuLkgQXfv1LXG7ad8iuhBdm1tPZso5iK6ZDHlUgKqeN6Jr0wtz1WyRN95iC9GF6DpqfCO6SJ5vJc+qAwfRtV/fEreb9i2iC9FV9dqxYH5BdC1o3KNCVc28EV2bXpir4YgcMTtHiC5E11HjG9FFQp09oVYTTIiu/fqWuN20bxFdiK5q1onCuQTRVdjgRwWNeZNkYQAGYAAGjs4AogvRtekd89EDmPmziMEADMDAdhhAdCG6EF0wAAMwAAMwAAMFGEB0FTAyu5Dt7ELwFb6CARiAARhYigFEF6KL3Q0MwAAMwAAMwEABBhBdBYy8lGKmXXZjMAADMAADMLAdBhBdiC52NzAAAzAAAzAAAwUYQHQVMDK7kO3sQvAVvoIBGIABGFiKAUQXomu/u5vfF3W7fO53frCLbzfKwOflpi6/WdiXWthpt162EF0bTVoE1YCgQnQhSojvKhlAdA3IX7BbJbvvrr2ILsDeJdgmMBBd+/Utcbtp3yK6EF3vipet1kd0kbw3nbx7Aw/RtV/fEreb9i2iC9HVm7t3HN/riC7+EPGmE+bbwfLrrK7Xs/pYOrAOIrpYwI6wgH2o8/Wqzr/2MVeY3Ycf314Lll4DKmwf0VWhU3YPMqJrVtHNAnaEBQzRtfu8yFo0a16slZeiouv+oxKvb3XXsOmF+HZTt/Y/+S9b9KJir9/ECcnH+eqv3y7q00H7qS6irev5wzkzW2eD/edtNmH+p3ydnP3z/Z9Uqk5oe+vTBXfvuz7pCv3l4qP915op+5sklOU8bG9QzBRgRo855KZ8nOc5n2CzrP3TMRP3bf0s/VPr4tI3Ls2nzPF9ZfnuCJuK48yxqOhywcPtRScCnU2cYDwAfHrhEeJ5MRvsWnR5TljAvC0WY2n1+OSka7++PQK/zNHyi+haPZkeEEZE16yiG9F1hBhCdNlFi/cj8L7fOa4juhA6sy66JKFMgB7kpAv/Z/xPnqk2z7BRgNmj5i1EF4m52sT8dlAiuvbrW+J2075FdCG63s7vG80BiK6NOu6owI6aN6Jr0wvzKF8Tx5vyNaIL0XXU+EZ0kaw3layPGqjMm0UKBmAABrbPAKIL0YXoggEYgAEYgAEYKMAAoquAkdmdbH93gg/xIQzAAAzAwLsMILoQXexuYAAGYAAGYAAGCjCA6Cpg5HeVMfXZXcEADMAADMDA9hlAdCG62N3AAAzAAAzAAAwUYADRVcDI7E62vzvBh/gQBmAABmDgXQYQXYgudjcwAAMwAAMwAAMFGFhHdPEHr48N95+Hej4f6m8BwN/dlWyhPr9o8gi7b/724hZikTEeIRbfmyOia0ML//1HKbUHsYLomlV0b1J06T96frupy+/3EthxFjlE13F8TUzs2dfbFl36xEy8vv95Betf9XjaCt/qLgTX3y/3hXrdTn8/si3T2899lkV2jOjSY3h+/Z2l39kDANE1q1+WFV2f6nK7qZv776rOv/r5H8TLKNGlx3BRnyJee/vo/PmnkfWH9lO0HKKr1+dFfTED/4x31hy4JTa2K7r0wq1C4TTc8Hf1namrhc0cossLHt3X+20On1uTEDYturj9PCohLS+6vOD5OF/V7XpWH0UXjZGiCdE1ip+xuWWO8ssyiyiaw0e0sQxH+xRdRpDZEy2VOPEZKbrkidqA23ux4NFCrhFh+qTtqR5f/oQuFmd21E74RXMJby/Kk7tW2MXlTYNP9fizDECTAlOPMWPH5pRwqpiO5thZfKPviwqH5fpedgGLBI85oWpFmLHvWZ2v9iQsEmf2dEyIND1Wf2oW3V7U7UV14vLm+8tnv6jo+F3OQf/sx3A9f/i2Ev1rvrXQvJ7Pvp6YzyT+J3HHSVc5Wy8Xq8wB225XdJ1Oytxu06Ki9/ZdK3QC0TFCdEUCwYiC3v5OKhRdui8relqR5OrbcTTXndA6yToC0mgs4alcWCccg2hjUsKfuX40D5uIjG0zYsyWGfXeWXxnnkcNtjydVEnRZU66rOgxIsXfbmzEyYc66etCmAR1hM2CcWsxl60jRdMAH3b87uu7MYpxGKZ6+jfjF7c3g3HH7Sz2GdE1KvYX88MA/ujbb2SwRccWmxZdNgit+ApFiz0z0u9W9NiAsWLHfvbvoZBpBJRsyfzsRJOvZ8ei3414EJX8uFICULfRHU88DtN+IFZ0nfjl57k10WV8mLFrs+jZ0wl/mnJqnwuypyP2oezk6YhYNKWv9vDzsiIgPBmSYsqIKyvARHLtCJtI0Fiby3GHPm597dr2osnW7X3vEV1mzPqky7XdxHBf/535iLn2jmPWcoiucrZO53X6xy5zMLAL0WUMoW8Btqck4QKeEjpdkWONGYudKeIlXyc1lndEV/42XH4MFQROIB79ePSYrQ+tP9567yy+vq+32p11MX1/TFK8zD+vHsGTsW9HpAwUXcGtvsDGPWMIyrW27IwrUV+XEeKrM2bRbt9389s7xwOiq5ytcz7gOj54n4HdiC65YGvh5J6VMs9j+ROgBprhouukBULmofscgHnBkxNd+rp42N70GY/5pMxYxO23YJ5ikdDjMvbInBzlxl3sekZ0uXGPtHd23J3F9/2AyfYV2b9kudpEV3x7UY8vPlnS9gnGbU4txSlmYE8tmvxtzJe2jdrSoinVvzkptbc0ozqyD0TX/HET+D7w9fx9SV/yM/Zdm4Htii75cLu5yyZOfYxoaW+9/Tyah9fNM12JW3LydCy4W+dFjxEw4jt/uzAN8HjR1QqqV310xEo0HyHImluWtkE/l7WBM/135hHZUfu2VsFY4QKx7AKWOCWyNugRtUZo2QfWrbCx9dr3eNxGHNk60e/wCr6Lbg2mmA7Ki1vLwbj6+hDfIbqi+Iz8mLL/q2ux71+V5/v5fYBN17HpdkXXDIG/Oej2IkZeia4j+vaNOW9zAdvX7bLlc8m+7LVNZtdZpJdni3mVtDGia9JiF50w2QMl/T7zCU14yiZO8yaNu5LgQnR1/kXLO0G/nQVMn5rZfxBxU/lnuF5zGp5k+TZvY25DbiqGEF3vxAh1X8cUNipjo3VE16aSXRlHADx2hgEYgAEYgIF9M4DoQgDOeupCwth3wsC/+BcGYAAGpjOA6EJ0IbpgAAZgAAZgAAYKMIDoKmBkdgXTdwXYDtvBAAzAAAzshQFEF6KL3Q0MwAAMwAAMwEABBhBdBYy8F4XOPNhtwgAMwAAMwMB0BhBdiC52NzAAAzAAAzAAAwUYQHQVMDK7gum7AmyH7WAABmAABvbCAKIL0cXuBgZgAAaKMrCdX+iL2NmL2KllHogukm3RZFsL+IyDxQQG1mMA0bWe7eF+XdsjuhBdiC4YgAEYKMoAomvdhR/htZ79EV0k26LJlmBfL9ixPbavhQFEFyzWwmLpcawjuv75nv0PQ5c2HP29kTR+ndX1elYfCN5ZBC8L2BssboZB/uB1tTn390XdLp+zxHK1c9xMnKyQC0auZ4guYCqfLEZCSiLqTySIrn777IMfRFe1fkR0lV9Dalq3R65nRUXX/UclXt/qrg2oB367qVv73+W3T6R6UbHXb+KE5ON89ddvF/XpHPGpLqKt6/nDQZGts8H+8zabMP9Tvk7O/vn+TypVJ7S99elVnX95X1ebWB1btYw19JeLj3bHnbK/sW2W87C9QTFTgBk95pCb8nGe53yCzbL2T8dM3Lf1s/TPFmNG8ylz/FbnYP3h31s+s36ewEzFcTY+z2Q432Cch3lp+HpWVHS5wOL2ohOBzibVLeoLigudkIR4PqQNZvT3HhYwGHgVb5x0VcsIJ12sZyPWM0TXjItftUmhtjkiumZNUoiuV4JlD98juqrNr4iuWfNZtX7OraMj17N1RFdu8Fw/Nrz4H//DwCEYYKOwh40Ac5giEBFdJPlDJPkpwUEdkioMLMMAomsZu8Jr/XZFdCG6EF0wAAMwUJQBRFf94gABt4yPEF0k26LJlkBeJpCxK3aFARiAgfoZQHQhuhBdMAADMAADMAADBRhAdBUwMruP+ncf+AgfwQAMwAAMLM0AogvRxe4GBmAABmAABmCgAAOIrgJGXlo50z67MxiAARiAARionwFEF6KL3Q0MwAAMwAAMwEABBhBdBYzM7qP+3Qc+wkcwAAMwAANLM4DoQnSxu4EBGIABGIABGCjAwDqiiz94fWy4/zzU8/lQfwsAvvSupYb27z9Kff/DDrUGXyw3hr/q8Xyqx599+HlXzLKeHXs9O42LTUTXuwu/Djj1re7vtiPqv5+QxkGw3EKRWSAQXbMmqfd5yfhJMNnPyF3pKHh+/Z11XkGfh4+zymN6MCsNa+sz+y7zoj6ia7m4H8lVkDOK1R0Xm/sUXSZBK/MKFwJtnOb6bELp5WIwziF/v55K/dwFxM2CZket3+2pRpC4tJBRYidsPs8rBmcDGtEl/CuS98QkEXAwsY33fDtOdE0a7+HjbFweec+f7zP5qv9JDKzC9gBb7EJ0/VX/5d/+j/pPwsb/6X/9P/Vffg2Yv6jzyu/7/H5cbO5TdLUQaAETii4LkF4kSgmSEQ5JCqX8WH3iSvfRFXB2/iu/I7p2JrrG8eS5HVevP2GnYyBZZ5NxNmJ+G1gEl2FgTp5GtIXomjWfJWO2aqbHxeYmRJcRD+6ox4slHbj+5a9bp40TXdpworWXz8jI8t2+w7GJE6geeNLjfS260vV00sjXtTZa5R3RNWuSGrOA3X+e6vGlbwY2L78paVh56JPW9mVPVE/mlMlddbfSw7iMbi8aYRPVCdqJvsvGBXHWxOi4xL5KXGd92BUwY5itfS4mPoK7E935Vj+HU99J1/9Q//l//z/13/+t/e9/iccI/tu/q/9qr8uTsl//R/33//Xvol54ila/Pcb4cFxsbkB0DRQOid3GGDESJgHd5zChlBI2ZjFyQTjUIblyeizy5cdlxvz1UE/XVwyKbtPfjqwGdETXiqJLP3xl/xGD5LzhzIkw6yMjnsSmQseZq+95C2NNt5WvE8aab6Ofz6jN00kdK85y+WGo/eoqN42BuubgeE2sPe67EUJ03To9ossIKCG03JyiOrrc//539R/19/rnf/u/6j//t8Zn//F//l/1X//n/5g1761rL8niuNjcgOhqhINKiCCTdKUeicRHuBBII8UJvFlwZFOp/tJOjtuKHRB/luOQP+fKxe37OjpxmVc0bznOKpObXdBd8Po5ybHz8zC7jPFxXNZ/znDWWVDS5YJY03XilxBqvs9h82s4iPuN4yX+nGs7Vy5u39fX4zWvVeMsN24/zi3FyzQGKp1rJ0YqHWdvvo0E1Omk3DNd9jTLCirbjhFW4gRMn3jZMlmhtkXbvBrzuNjcgOiyE9YT06mvPekxO3B/6pM64g0WAguKeY8TbPzZ9jnkPa4bOyD+nGszVy5u39e3iUu/uxOKYJ65Nn0bqyRqRNesOz7LwRBfhmU1H/YkNMNZZ0FJlwtirVMn5C0cQ/hdfg5xvzHb8edcu7lycfu+vh2vfl8vznLj9uPM266+MtamWxpzdqwveM/WC3L12j7qEV12nLH46hNWfd/Z9nbzPi42NyS6GihdsAa3PfSkVfSv/prbD+kk2U2w+YT6Khj629KLkROKLyALFi5Xttu+DWJnC/Psll085XjzdW0bq7wjuuoQXUEMZVgJyrS39MSpleUnZFe3JTZEjmUfw+m4lOzGP3fHJ2N2/3E2LrFbv9T67nNX7OcNft6F6Gqe23L/WtEIrNRzWFKc6Z/9LcSANURXNsfXL7pM0m+P981Bl30e5aR04Dav9uHg9vi/ScD2u+a9eShYJ+7o5RaQ6Dt3PZcEovK6WVtHjPn5dR/+Sw2jBa6BuLvYWLiDxNX26R5+7jzzkpvHCtf1WK2togXZzo334X4JOHhhTx8zBljxyzbznIXxJJ7VEn2FouukwofvoxMiER+vf3ULcdbEAqKr2pywC9F1Uid7ktU+GG8FmH4eyz1E/2//L3w2S4sr9yC9+A7RtWHRJRJ7tUE34xjNAtfz7MhgGyQF3PCFfHA/U+aO6MoG5BS7jxVdUphP6S9VZ8wYUvVLX9tenCG6SjMyuL+9iK4puZw66sRvpJ9RWAQ78vCEbPztkeHjen8BqzxBI7p2ILo0YyIm3tkoEGcDeKg8pkcuvu/nuOH5dLB4GjkH1y6iawC/Fflrqp+z9cbF5jq3F7OD37NjmJtLUvj/4EmKWCAWYAAGjskAogsBgACAARiAARiAARgowACiq4CR2dEcc0eD3/E7DMAADMCAZADRhehidwMDMAADMAADMFCAAURXASNLlcvP7HpgAAZgAAZg4JgMILoQXexuYAAGYAAGYAAGCjCA6CpgZHY0x9zR4Hf8DgMwAAMwIBlAdCG62N3AAAzAAAzAAAwUYGAd0cUvkzs23Pxy1Fn9v6tfNFkg6cld53Z+HvcLGLczrx2cgvy+qNvlc9aYxn8b4uLXWV2vZ/UxMHcdVnQ1f08u/Xfk5gG++Y3ds/7m+jnESg2Cd455DAR8Hl/WnQC2J7qav6c4558j6vztxwl8zNHGcrwhupaz7Zvxjeg6tuBEdA0LoFGia5JIGCC6RgkgvVA9xR8oPqlmDuJPsbR/RDpcPLoLnF6kZxWDYxe4SfYc5tdqE/NYG40ov0fRFTL8wvc6joI/oN7EnogMx3tgK81hEFNNvTnF4Hw8Irrms+ULnkbEnhkTogvRxUnXzEG1lEgYIbpSQim3MMnrwSLjkklXwBVNaEvZ081vZv9X3m7ax9u2gWS4n80Uy3mB4m2VKWOE2JIn4FP9khlv5Wz2+26qLZap93m5qev5Y7yAQHSNt9meuN3dSZdOgj8P8cd1bUJsk9DXt9vQ+tMb/Z277Ha5p1Nz6uO/sW3pIA7rNLvd8Jqt5/vJBL8WU+2rU9YkdfutUmrQHwrW45ZjbfrNLUzueo+oc2XWgB/RNWuS8kIiw6PwcVg25Eoz4V+Ct4BZcd3wlYrN/DhkH50TJRE3ehyd2BHzcIt5kvE2N/zpjsPOv49/W8b1keq3+LX8nOoaZ9fmqfHVaeMPdb5OEF6IrlnzWYqXqq/tUnQppWyCNknbCJVWEDnR4hcQHdA+YTflbH3vPF9eXwuTgP5O3MqbKBK6iT1qN7lgJJJWppxcwMxi2dqi6fehvoNbLlG7us2+75dcVCba0/sumsuSY91A2yG7/bYJy8oYkD/LNqLrkhv9s4iTLu+ynfDncBwndTLCzgu6oW112jH+anODV5Auf5jyX3ojd88uFCauer5fh0NEVym76xOvUQ/GI7qysVTKZ6v2s0vRJcWBW7BzSah7PZ3A5WKif45fC4iuWDzFn3MLfKZcel7iWS9pt7htZ8dwMSwC75p9x3bYwee08Ej7NSwrY8AKFcG9to0RVlFsWK4yXA5hKBxHw6zfKHU/59qM22nKdXOAra/Lm1efqHpjXraf+d/zc5q/rzQ77/eTyrP+tP/jfFW3263976I+XWx+qou7Hp5EGYFkv5PP1eiF0F6/3dTlt51Tvi05P9OubM+NxbYj3lOiK9v/SeXGPGX+2ToT+j9l6+RtVm3/p/yYc/bPzz/vM8OMtttQVk4nVf+/XowXaJ0QTdLPJaHu9bQ4kQuO/FkEkw20eAz2+ov3Tr9xMo8/59rLlOu039a31/V79vZlpk2ZeBb7eaI9FxtPzu4buZ4WHgmOkye6/nSpsa+OHy1LWvHVx0nfdy9sF4/ZMmt9HH+21+P3uB0/h0g8tuOx5fW7FHmy3aF9yzrL/9zNa8v3mWZojn6tH+Zoa+42zKI85ldApETXC/7nHjPtLcfqS9vuXXT5ZJlPQr6MdkSzuxpyezGXhONbHy+d0AZcJ3lrseGezWp3fX07bhe4aVHYab/Tb7OApuaVqzt0bm+VQ3TNehw/ZgGTsaF/Vo7HMGn5NjV7aQFjTsEG8Ru2rdnx7bffaQFnT9BMnORFUcBeUvj154YmF+TyQmJsLg678wjGsmi5/JzKjWG++Xf8v6jtho6bZ7q2yNLqY96l6GpuCDT/75J8XxJqBU1bLyU6GjEmd/lhHbcAtMmgWaCaBtPt+cDWgiZ+WdHn2/lW9+SC4duRMOl6cb854RReb+YV1tXXMgtpieSH6FpNdDUbCMvxw/8DjVboOG6tANI8aE7Fy7E0gl/LsuffNmg5bDYI5urzoe5fzw7vto3wPcVyPjfo/m0sWlu4z3quxg4yL6TjMRxDiTL5OZUfS4n5lu9Dn3DxrxfL233z/O5SdMkFYC5RsLmFP7W4TAuQlIArCv7mbD/NzqVsGgiJueJjS+1o8TdLjmiEXyDCqrEDoqtUPI3uh9uLs24iR9t/7RhFdPUskMGO3e6we8pnndmcHtm9evDuTuKmtPuizhxiZcLpxOxBMMc8sr55YcMd1qtLdK0TG+Hp7jQG5mhj9lhxvCK6lrPtNF7ceBBdiK7qH6R3ieRN2Gnn2LDjf/wPAzAAAzCwIQbW+deLGzKQ280wZgIbBmAABmAABmDgDQYQXW8YD0HGSSUMwAAMwAAMwMBQBhBdiC52LTAAAzAAAzAAAwUYQHQVMPJQBUw5dkswAAMwAAMwsF8GEF2ILnY3MAADMAADMAADBRhAdBUwMruW/e5a8C2+hQEYgAEYGMoAogvRxe4GBmAABmAABmCgAAOIrgJGHqqAKcduCQZgAAY2xgC/HPXYYm0Tv5EeoXNsSPE//ocBGNgLAxsUXR/nq7qN+C3qLzcCI4VHsr0N2tHMY+TcOenaS+AzDxYxGIABGCjPwAbFwkvRNWpOn+pyu6rzL39Cqf94+O3m/3N/SDwSKKbc5dP5bPIfHV+T+2hOSUEpxofoEsZ4ZSy+90GFLbAFDMAADJzUaZRA2QgzI+aUEkr62uV3O1ctSqwokwIl2UdXwFXPmJzTAD2xjuiq4Y8uDzBO9c7e6hxGQoof+hN1kOC2ygTjdrv9NO8f6nwNTxPS5fpZoc4C9kmKh3Q/+oTJnfqcIp/qdtzpUOhrHeP2O19fC5SLOutbhW09J3Sy8aTrtG3FtxeNOPL93MQJVJ6bZgyfUX9hTtLzbEWYy/3perqf0EZpO+bHs0J5N6dhfSO6IliqcuZexzYSUnzSH8xhgusviy23ap9ogd5rbtjivGYRXXn/hiJECJhTI6CcCBuTVztldVtC6A2dU6ZckJN0X7eLMsKs7fd8EX3FPtdtxoIwLlPT544t+3NMUdF1/1GJ17e6awMax3iVLRW7VPnSGea+tFXt1qnGGQ2MVv07KFsVba/fZJ0N9p+32YT5twFsbSNtlrN/vv+TStUJ/WV93RN8NQVWdWMJfWz9ZnenKfsbwZXlPGxP+j/0W5s8X8TZ+P7TzOgxT+k/Wyc7/3z/ec4n2Gxs/1F562fpH4R0/yK3uH0ywiPVr+bS+y4UWjZm5Np3MqdhNlf696aM5k/G4wg7aK6ksInnEH/O5b9MOTuXhleR4x3P4lrcdjy2+PvaPo8cb1HR5SDk9uKLWwkjgqc2AIeMZySkjpshbR+wjE5wYaLeOT8H9HGz+PYsVIe0SSWcZ4RHKm/1iS5b3gqWJqZDYWbLNO91i65kTrK5X7/nBOMIe4b2WIkHO6eBMYjoGmioKpy7l7GOhBTb9ycTRFe/ffbBT9/ie4T5VzzHESLBnMC2z0o1p7FpIS3FmawTsjyj6ApEUHuCO9szXcJ3IvebecnTtnZ9k3MP5yvaqWktFHMaMt51RFdNBmMsxz51w//4HwZg4B0GRoiuk3yM43IW/ziiFTrJx2Wa57jsrWX/WMwE0WXElb9NadpsxZU9YTPtj5iTrudvmTbCKLsRjASK6TMQXnpOaSE6RNCsUiaa06sxILreCTbqkqxhAAZg4NgMjBAorxbkbX4/yPyF+QAAIABJREFUn1BKCbjqbYLoqvQIksR87MSM//E/DOyTgcpElzk9cidm8lRr4kP3Q7gdKTySQqoyOybHmLLFyLlz0pUyItf2mRzxK36FARiAARhYkQFE14rGH6ykGSNJAgZgAAZgAAY2zwCiC4g3DzHilVvqMAADMAADW2AA0YXoQnTBAAzAAAzAAAwUYADRVcDIW1DfjJFdIgzAAAzAAAwsywCiC9HF7gYGYAAGYAAGYKAAA4iuAkZm57DszgH7Yl8YgAEYgIEtMIDoQnSxu4EBGIABGIABGCjAAKKrgJG3oL4ZI7tEGIABGJjAwD/fSv3cESxHXUv/PNTz+VB/B84f0TXQUCSjCckI25KIYQAG9s4AouvYjCO6EAcIRBiAARiAgUIMILoQXZx0FQq2ve/gmN+xkwn+x/8w8JoBRNdrG+2ZI066EFzscGEABmAABgoxMEJ0/f16qu+vh3qq9iWfBdPtuNe3uhuhclff+n8/+ounenw1ZZ5ff48tdGoScYiuQoFWk9MZCwkIBmAABtZhYKToUkoKqqd6/Dmpk1643fWTOuk2zS0rLbqU0iLrroWXvjaiP4R3AT2A6CpgZJLbOskNu2N3GICB2hgYIYL0SZc/pfqrHs9WdHXaaE647if7fjKi6/ufVpDJE7La7HG08SC6EF3sbmAABmAABgox0BFM+X4RXXnbbJZXRNcOnXq0nQPz5TQDBmBgKwzMIbqi24tanPnbi83tSH17kZOuCtd3RFeFTtlK8mCcLHQwAAMwMI6BOUTX6aSM0Mo8SK8fqkd0Vbq2I7oqdQyJbFwiw17YCwZgYAsMjBBdm72FtgU/rDVGRBeii8CGARiAARgoxACi69ibA0RXoUBbS1XT77EDHP/jfxiAARjYLAP87UXg3Sy87OTZYMAADMAADGyJAUQXogvRBQMwAAMwAAMwUIABRFcBI29JhTNWdo0wAAMwAAMwsAwDiC5EF7sbGIABGIABGICBAgwgugoYmR3DMjsG7IpdYQAGYAAGtsQAogvRxe4GBmAABmAABmCgAAOIrgJG3pIKZ6zsGmEABmAABmBgGQYQXYgudjcwAAMwAAMwAAMFGEB0FTAyO4ZldgzYFbvCAAzAAAxsiQFEF6KL3Q0MwAAMwAAMwEABBhBdBYy8JRXOWNk1wgAMwAAMwMAyDKwjuvgDocfeUfw6q+v1rD4QvLNw8Hm5qcvvZRIEibcWu36o8/Wqzr9qGQ/jcLHx+6Jul89ZYtm1SW7cjj1HrmeILuAuD/dISElE/QscoqvfPvvgB9FVrR8RXeXXkJrW7ZHrWVHRdf9Ride3umsD6oHfburW/id37npRsddv4oTk43z1128X9ekc8akuoq3r+cNBka2zwf7zNpsw/1O+Ts7++f5PKlUntL31Kbv3aYtJ6C8XH+2OO2V/00+W87C9QTFTgBk95pCb8nGe53yCzbL2T8dM3Lf1s/TPNH6OIFSXnWMQY269afnM+nkCMxXHWWADsTbH3G5hPc+POe2zMC8NX8+Kii6XHLi96ESgs4kTjMsmiir60wlJBuiR5r7AXHXik0mtCh8vMM9jz4uTrmr9z0kX69mI9QzRxeJQPmAQXbPaHNF1gI3KCdGF6DoC5xuc48j1bB3RhdCZddGtNhnhZ/wMAzAAAzAAA44BRBcwOBgQbxvcZcEv/MIADMDAZhhAdAHrZmBFFCIKYQAGYAAGtswAogvRheiCARiAARiAARgowACiq4CRt6zKGTu7ShiAARiAARiYhwFEF6KL3Q0MwAAMwAAMwEABBhBdBYzMDmGeHQJ2xI4wAAMwAANbZgDRhehidwMDMAADMAADMFCAAURXASNvWZUzdnaVMAADMAADMDAPA4guRBe7GxiAARiAARiAgQIMILoKGJkdwjw7BOyIHWEABmAABrbMwDqiiz94fewdxZ+Hej4f6i+CdxYO7j9Kff9DIt5yIn499r/q8Xyqxx/8/NpW2Agb1csAoitY+O/qW7GALR6wiK5ZxJb107qiS4sBpZ5ff2edk50b73bxQHTBgmWB9y2zsGHR1SR7JV7vJ/5KRdfeRMre5hMI9/IJcYzo+vv1FBGjlHr7xLFW0aVj+VvdB/pG2yXIH9Uxiuja8kLL2MvnxVptvnHRdZDj9uoWgDcDaG/zGbiwL5UExoquQFysPPalbHI6HU10jZvvcnZ/MzfslkfsAnMNA7sVXXoh8i8rzqLEJJ4tkycAwfMxWiD8PMwtlKY9sXvW37lO7PWmj2/T/1M9vvQNS3H7JVnnpO4/vqwv3z3N899tOIgRXbPeiptNdOl4EK9GnOVj5iTKh0Lurr6fD/VwMWjjTzMbMm1jzczhx8bKw9zmd6dwmZjRMfv9JWLw527sGsZ+O6H2u1zi7z/p0jbwLzlX2Ze/3p5KtbGva/rvpsZtz0lXax9ry9wcuT7A9r/O6no9qw/E36w5CvY8exsXXT4RysRmBJRLsjJZ9SwgbZB1FrAoofm2E22ZWzVNgtZJ1iRkfc2Ju1wdLbrErR7TpxVxJ3XSn9++DeSdvnoA7G0+KyfoDrM94zH8yrCxXEXMeRGSYNbFVsOUL2sZ8zFgWNP8t/2EY9XlGkHm+DdCTl+z/dr3tm3RVjMXGye+rYbvqF6PTXT5zhwEo53v2rbC642YbIRP87Nydho3lnR8yjxm7dzmhtaG6Xqi7AsbUP+kToguxNbCcbJx0SV30Da5xMlJfo6SnxNDtm4jfoIdo0i+JinZz2ZxkKuXFU2+D7fA2H6ydeJ+fRtBnwvDUCzpWhvuZT4rz8NxNmAcoVDw3MfX/eeIRcuy6MuXte1FddytPn09fnnRZeLOtd+20RMzYb8yzvU44jHYsaXfw7aijY4dgxNRug3dXzwX+49w4rGk+xwXb4k2zbis6Az7+Dhf1e12a/+7qE/nr091cddv6nr+cItsto4WIqLO5bfv6/Ni+7ipmzwhytaps/9w7nZOV3X+5ec6zl/Uw15pBhBdQSKNxU+UfHXi0okuOL2KDeuTvVsMdR3dj313CdDXdWXNd74NA+7eRMre5pPwZ8mEE7LjmUqNoSMu2rHH1/3niMUEw76s7Tuqo/1tHmqPrgu7uTm49tuy7rNt27+H/caiJN/XILukGNVj0S+TM+L+/LgaQZbaEMoyY3/O9GdsO3dfY8e2o/KcdDkRnooTrr3P+g5FVyOc7DMUOjErd/yuE7FNUPpnm0C9IV3ytwtClHz1903bsi1fX+6wXVtu4cjVicWeLid2sG7Rkv1s+OfIpgTye750nFlme95DoSL61YwGtxpTnKdjpttmyK+JwXZz4+NH9H0S/AexomMgHzNhv7EoyddL8ibn347H5pCgvGBXzisoY07BbJ4J5xmWG/NdPD9R1+QHe8omrvdwMH0cO28f0YXoWjhuNi66mo2n/X+XJNskZK6bh+B9AjSJ0nzRPrguFgPbTvPe1pFt6S/a8iZp6UQtXl6MNYLJLYZuIWlPyjp1xKJjHB4uWrov3ZZ9uXkuDMdiiVksXIv1sVXbTBi342xAXc9/S5MVWsHtsm/1EL9CwdcJY8Zft2TahV/zK16uD71gp79zc3CxImIgGWfxc1hdURKMT8Ztxk4yxpwAjWJPz8o/fqD7FPN0G6XuWN7n/FWbwl6Z+b0/hp0LLuyG4CrAwIZF19AE8CpZvWgHgTB/IGLTWW3qBMuMCUMLluniHgEwv8B5M4/NyMb8c3uRgxn7rPkC/63LG6LrVUAjEOYPeGw6q00RXcOSaHCSJQ+o3AnVsHbWWbQQXevYvWYmGNsWmVhHdL0SOnw/66K8RTAZMwkVBmAABmBgbwwguhB4CDwYgAEYgAEYgIECDCC6Chh5b0qd+bD7hAEYgAEYgIHxDCC6EF3sbmAABmAABmAABgowgOgqYGR2A+N3A9gMm8EADMAADOyNAUQXoovdDQzAAAzAAAzAQAEGEF0FjLw3pc582H3CAAzAAAzAwHgGEF2ILnY3MAADMAADMAADBRhAdBUwMruB8bsBbIbNYAAGYAAG9sYAogvRxe4GBmAABmAABmCgAAOIrgJG3ptSZz7sPmEABmAABmBgPAOILkQXuxsYgAEYgAEYgIECDKwjuv75VurnjoMLOLjKncivs7pez+rjqPOfed6fl5u6/B6/46qSjZlts585fqjz9arOv/BzdT79fVG3yyfr2VFjd+R6hug6KihrznskpNUl2TVtl+gb0XUEIYLoqjYPILqOLThHrmdFRdf9RyVe3+quFxI98NtN3dr/5M5dLyr2+k2ckHycr/767aI+3YL0qS6irev5w0GRrbPB/vM2mzD/U75Ozv75/k8qVSe0vfUpu/dpi0noLxcf7Y47ZX/TT5bzsL1BMVOAGT3mkJvycZ7nfILNsvZPx0zct/Wz9M80fo4gVJedYxBjbr1p+cz6eQIzFcdZYAOxNsfcbmE9z4857bMwLw1fz4qKLpccuL3oRKCziROMyyaKKvrTCUkG6JHmvsBcdeKTSa0KHy8wz2PPi5Ouav3PSRfr2Yj1DNHF4lA+YBBds9oc0XWAjcoJ0YXoOgLnG5zjyPVsHdGF0Jl10a02GeFn/AwDMAADMAADjgFEFzA4GBBvG9xlwS/8wgAMwMBmGEB0AetmYEUUIgphAAZgAAa2zACiC9GF6IIBGIABGIABGCjAAKKrgJG3rMoZO7tKGIABGIABGJiHAUQXoovdDQzAAAzAAAzAQAEGEF0FjMwOYZ4dAnbEjjAAAzAAA1tmANGF6GJ3AwMwAAMwAAMwUIABRFcBI29ZlTN2dpUwAAMwAAMwMA8DiC5EF7sbGIABGIABGICBAgwgugoYmR3CPDsE7IgdYQAGYAAGtszAOqKLP3h97B3Fn4d6Ph/qL4J3Fg7uP0p9/0Mi3nIiZuwb5pf1bJY8ttkYGLmeHVN06SBR3+q+i0X/rsxsZlx0/3491fPr71uB1NvGSEg3G4yF+FpXdP1Vj6d6m5dafKy5VbNuCHR8vptr5mhjw6KmUBxNZnBl0TU/s7AyioWR6xmiq6KAnrZ4vhJdelF8qsefgYGkE4hcdDRQSr78AhKM15ST/TSLcfIEZiSkowKgIn+WGnfgh+Lzr1V0TRMqrxewMe0mYsBs+BLxFMWE9qn6ufuNTxyXxf08MH8ccVyjRFeTrwMC3twwv2Z2Hd+NzUuGeWGY5NpRI19R7L7K+8cUXTU67nRSYyF95dzm+zGiSycEKZxO6hQBJRcDP95MH7puapcftTlsHuskji2MzfsBG3l/jRFHY+w2vF2zGErhpPNOboGWMZEpo/387gm0t8+YOVO2124Zf6XrDOcnXX87vhibl4LyubWjxrVbxu6A8W1DdGmo7avvFKZNcDrZ+eQkBUGz82ya8ic2Gu77z1M9vnw/vn6bKKP+TR8/WqLoHenD3GKRtyw1QPbl27qr7+dDPdx3rcCR87OVUmIlcqhJ6m35eFcg+1exkIraccGdSh4xULpM6wMbJKG9w6Rgy7g+dN9xm7nxcN2fdPTYImnjbHkZA9GzYBGHDbfRIiEZEeU949r/Gc7NmNL9mzn8NPH3/HqYW+aWM8NLIi40d99f4iS2jX/dVucVi5+OffQ825fMMYkxyzgPuA7alHlHxIS0nyzvYiKyd7KMaE9+z8+D4iXvs4l2zfk06Y8X/rUM6veX61me2S2uZ0Eec/HQrhfCLj7X9OWZaN0esJ5O5kKONenzkKv6RVc0ISM0DIwaOHEqI8APRUAq+XXBN4naJVvRdqZ/Mw7tSP29fkLsH99Pt3+7uDVBYqHxc2mcEkA3wHkWkrhe2K4fly2fe4/bMeWi+esydvymvF70eha0cCwtfFGbufFwPQzWnD2SfsvwE5aNOBeJyTMcxYqIMzseX9aON+TcnO5EQr2p6/vX4zIiS7dv4tr2a9/btvX3bVuGLTdm35ZvO9xY2fH2vifY1GOzzBtB6fq08028J9ox/Zr5yRWk/QclbfmH3vxlHwWI55joN+P33jlT5z2xloiJvL21D8NXs2GOfCvaDOMrkc8TrLl4Mr4VbUdlTQz93JWLJf39SuuZGbMzTS4O5PwbW9rYtHMxtjfzmBD/U2Ihsmne9028Vi+6GhicJ5of9CIvoDSTFJ91HeuI00k6ySYp7azQIdrh8rTIfs717/pwBrf96PdovAZi3XfUrxiznoPt85XT4u/DenYcdq7xZ3u9+x62037fBqGbkRBYurx5iWvx2Dp+0lA7m3XH0Kk/JQgOVifpt6QNmiTlfGl+aJKb47mt5z/3M6v95ctaf0Z1HPf5/t0cXEy0bejP8UuIrnycx2OwY3vx3mEzbif+nGmv005bzs0vqufiLLfY6PLDY5k4iuybjIeZyuR8muwzw0/chvgcxleCgQRrLp7aMdjPuq3OqxVdJpZcW7Yf/d6p0a6V0VzEmDV/ts+hLAblTTzYNVr3I182RvL9hzabyc9Jf45fzzYhunxiFcaLHCwX99DgFh5R1y0C/lrgcJPcGhEWtuXLu+tJSC0UvnwDXh6SKZBamLtjl/2n5h+Pq/kcttOWcfPr1rHl9XvSR8kFeTykdp68d30wjpuIP5FEHM/tNf85qhPHXdLHUR2XQKPron/Lko/jtmyiP8uBH6O2S8x5vi9bP/ne4T1uJ/6c9kl2Y5Gbj+3X2SrV7sC+hV2Tc+T79062YvvlfBqXM58zPozbEJ/7OU/nUxdPps9GOOlDhbAtz5i7bjl08RTHla8z9yFCd8zNOqav21utYZxHtszaTI55gZ+dzYa1Xb3oap7nsIpXTCpITtr43jEaIOsk87O8DZkBP3C4bFv+LIIoD2kDtu0/THp5SHQ5PYaceAnbEXZI7ChkO+n5h/Vd2wJad60HKG+zxv7ypNDW92VEnz1t2nq8C3sJ7lJ2Sdo4U0eyEbSlfW9vrxvmLYvat1bEh3Fm67tYcH2GnBsG29PQXP9uDo5B24bsP7RJ2G+8OOTr2XEn3zts+gVLl9fjXPaZrjZ/WF84m6YX1+QcZB1+nldgpezpmA35TPvGch2VNTFn1zldZsR61mE2OmWSbcufxVxcLLm2fDzJ+A3nFM0lskMu1sM2vB1cDtDjEuMM2tF9BPnI2iz6RyqmnPhOzDXX/+TrzmZ+Ln1t1S+62p20PFy0i3uTAPU37UPw7jZXC60BVz/kHi0asrE2ufm22vbEcxUGOlEn2DE4g3tIGzUuKrhbmf2QNqDZeq+BCccsxm2Abdp5ft3F/F9BocdnbdWWdfPr1tX9W1/YsbvPUeAEEPa0GZRbMlB21Hbgh5fzErFhkLG/pLYRFw013+ohbtF7/sM489ebWvr/G//n+tAMpb9zc3CJW5drY8AkUN+H3Zjo/u3P4Q64YTUYn8sNXY4NcyJmXE+2juj/+x8xrhe2Nv3bNmxZN79oHFFMmNiOhJe+5ucb1bft8768yIptnPNpXM58jvh3MWMFvaYvjLMgZsw/2mpzdA+zhh8HcpjTg7ho+3ex5Dhcez0TY5bzlPOP71hFfgjn+Xo9nbz2OJsNi8lNiK5BxogMPqiOCAqX9MW1sW3sory2Y5Tsp82rWcQDEWZtOxLSaf0PC4A9tL0Euy4JW5+Neh8uTPZg//wcemJglD3bXfwscXmcuMj7ZWYbvLn2JMf5ZptL5ITkOMdyvMfyI9czRFcLQZWQSoXvdi3ND0vueN9bcJuE1tvGSEgJ9v5FYgl2e/33MnHWKbq0ndKvBXfB8W78pe1Svq7TnsRl66s3BVLSjm+2uUROSI5zDM8rrWdvj/vVHEeuZ+uIrleT4PvyR+TYHJvDAAzAAAzAwKIMILoAbFHAFt9l4D/8BwMwAAMwsBEGEF0bcRTiJXXbhWtwAQMwAAMwsB0GEF2ILnZIMAADMAADMAADBRhAdBUwMruQ7exC8BW+ggEYgAEYWIoBRBeii90NDMAADMAADMBAAQYQXQWMvJRipl12YzAAAzAAAzCwHQYQXYgudjcwAAMwAAMwAAMFGFhHdL35i99Q9dtR9Ulfjfxlcsk2CgTHVvqt8hch4h8WMBiAARjoMIDoAooOFIuLDUTXrDbfnuhq/v5c8k9ETYzH936DfrOJmaONxWNnon0Y18Y3qvh91py5ZjwguoC5PMyIrlltvkfRNUoA6ZPz4O8Syj/eHf7ZrMBWmsPgD7zP+LcSySuzMr7mIknfCNY5GUB0kRzLJ0dE16w2D4TETngeLrr0qdlTPf7IhUGLp/ha8723VaaMEWJL/i1GOU5+nnMxoy142gID9YsunQR/HurxtH+qViREvcN1L3u9+eOw3+aP2z7V46sps+QfiN6Co6saI6JrNdHlRYdO0OEfUtZCx79sPJ3UyQgR+424bp7NzMRmRvzJPjq3F4N4VmpQzJox3CN7ZgTV6aTs/PtEnS1TVcxk7MkYKxAaSQYrGBfMRHlhIZ/8Oqvr9aw+Btp7G6JLKWUTtE6IJhnHO1INvrnF0DwvosvosuYaQVEGvoHQmUU8uB20UDAMHc/Gy40RCWFZKbrkz9If0XUXZyd10j+LU6Y+IROLg3AcVth5QTe0rU47xpfNbUIrE/W7zB/fX3ojFws1P2cjDHu+j+fCZ2+7Q9qC9aWu9aV0Pt+l6BILtEvGHdDt4mDf/a7WLA4k0XoCg5OuWX2RFh7phTAs62PldLJCJbotZ4SVlC/tRkYntk4MpvtMLcThOE7KxXWbMOPPqTb0tbidplz/SZeZTV8+eGNeuXFyfTgbW7GVZq/7ajcOeiG+3dSt/e/y28//8+Kv38QJycf56srfbhf16cTDp7qItq7nD5c/cm2dCvWfHfOE/vNjzs8/2/8pX2e8zdJthX1bn17V+Zf3dYrlbZx0IbpckKWcuLlriK5Z/ZkWHunAD8tK0WXLR+KrT4D0fecWDNtu+B6Oo6zo0qdeuv/c7cuhgm9zcffCJ8wnZHSwPd6Ig8F94LtZc+asdj/MSVd0e1EnSn97sdltuMROUNQFLKJrVn84zgckZik29M9K+Vt6MhH5NrUwi06/bD9vxJVvv13odFt2c2ViOy+K5DjTp239J13NrUY9L3/bUbbZGZudL++zcittvumf34iDTc+beGji4TCi69Tsjv3xrl08/O7dJU+Coq5kieia1R+O8yFJsBU0Om6eXw/1bUWXuG5iygog3aaOH/FyJ0QT4kqPNXxZQWdP2Jrbl/evZ/YkKlyoUqJwiOiyz5FFwsvYweaSiScfQ/xAmVljIGQCv2GPehmo//YiyWl/yQnRNatPR4muPcaTFn9SJE6eYyP87EP3LFz1Llz4Bt9slQFE1+QEDfSToUd07Vh0NbftwtOs9lPfw+tvxuEcz2HN0cbkmHhz/vRLPoaBbTCwjugiwcy66BJs2wg2/ISfYAAGYODYDCC6EIAIQBiAARiAARiAgQIMILoKGJmdzbF3Nvgf/8MADMAADGgGEF2ILnY3MAADMAADMAADBRhAdBUwMjscdjgwAAMwAAMwAAOILkQXuxsYgAEYgAEYgIECDCC6ChiZ3Q27GxiAARiAARiAAUQXoovdDQzAAAzAAAzAQAEGEF0FjMzuht0NDMAADOyUgd8Xdbt8IliOupZu4m8vHtU5zJvEBAMwAAP7YmBl0fVxvqrb9aw+9sCVtuXtoj5nnMvn5aYuv98R/B/qfL2q869MG4iujGFmdCI7VmwMAzAAAzBgGEB0JUX0JLHzUnS9EEDROm8EaXAK+akut5u6if+sIAvGq4XUTQgt8zkjBhFdJAIWAxiAARiAgZkY0EKg7yRpZdFVq58DEROJoeljHiG6kkJJi660ePLjTffRFXAtX5sQXf98K7XgH7+d7tCZgnQ2wHY6npGQ4s9+Dnyy6C+HHbdsn/RCgE+n+XRszPTewhspunTf9qTlev7wp0RGJPjv7HNium9fTnIgTm0iUfh5uarzWd+qa9rz9U/qZE6T2n7aeqaPy0VddfnLWZ2v+nsvTpJj1uN1ZUV52b47UfJtpZnV82rHJPq1ZWX/N3kC1bPWhnaznLwWXel6un6m7sj1bJ0H6RFdPtB6oLHA7e59JKS7m//MPh+7gGBPm4C39C4X2y2Nu86xTooZIyYS4mGE6AoX9EZoNLe39IIubmeJNrt1RDmdSxL51IgUJ8RE21FZ3bYWd+Zdix39/U0/A+V56/bfPiPlyjY+1n1KcTfJxglhY8fY5C0/rv48liunbWHFnX73tjTjPWshmftHEdJfguvIpv3jKvxngO4/KvH6VncLjjCGvc+qJ2AAst85kE4tKNaAMhhCw0oQGrgSdVqA7M5gC/2bYLN2MYFiQZgwfwO7tUs3eKxdgmP2kTYLbW/78tC/gpXvrX/1e+hj5582YeRiZmvMaJ+H3JSP81ltNjJm4r6tn2VOIy5kXPT93B8zec5Em0Z4RTlLCKR+XzSLtvWhfTdrTdyG+KzH5f2dEBOJRT8WPPZzOMc2B7eiy/Th2rL99IzZlW3sE46zWbflOtpvG2tj7SMZ43Yc9vv4s70ev+fKxe37ei5nZkVXZk6RHV7Nk5OumU8dXhmc79M7M+zig3+sLWxCHVuP8tNtXt52uUVkS3OoZ6yTYsYILikI2vkIgdTPRY8P4zbE51DMJNpILPrh/HSd5nQqbMv7w113bdl+7Lsv6+boyjbfuTbaNTUcQ6J+cu2NRVHcf/w5126uXNy+r2/Hq9+9yPXfn06ZNiM7OPsk51f4pMsNhtuL3F4UJ5aOiwykfC8Dv/uzTRbYqWub/dgkk/CJmUm5dGzMaEERnPJLuwuB9Io3007qJEUv3O6ERwsD/WxVc5tL1jE/i1tipr/Eoh/MT7YtfxZz0O2mT7rak+bcmEUed2207ebFS1+cdkWRbCc5fzEPaf94PM133fZtHW+zxv7dU7pM3YT9bZup93VOujJGSg2Qa32A8h18wAAMwMCiDGhRJcRFp68Roqs5LbGPVuh3f3KmF/3mlmP7ELxMiMpeAAAdT0lEQVQTOo0IMN+ZB9fb25tGQNk67Xtbx7elr4e3Qxvh4utpceEEihMQUuTrn315N2ZXtuHPtWHX92B8fp4d+5nyYo72kRlrc9HO9fzZ/zuzbN/63dSL+80Ip/YxJie02j7dZ/uYg/OJiDld1o5V9p/5GdGVMUwaDGFo6k3aYWJXGIIBGNgVA6NE10Dfv9mmP7UZ2N9O1zMjMFNCaex8kwKutS2i69iQ7SqZjQ0MyiOEYQAGSjPwpkBK5uw326xSdLWnR/YfEMj39DNU86zl79tCnvolxoToShildBDSH4kfBmAABmAABmAgYoDbi5FBkrsOyhA4MAADMAADMAADbzKA6HrTgIg0ThZhAAZgAAZgAAaGMIDoQnSxc4EBGIABGIABGCjAAKKrgJGHqF/KsEuCARiAARiAgX0zgOhCdLG7gQEYgAEYgAEYKMAAoquAkdm57Hvngn/xLwzAAAzAwBAGEF2ILnY3MAADMAADMAADBRhAdBUw8hD1Sxl2STAAAzBQhoH7j1Lf/8zUF39L+Nhi7c9DPZ8P9XeglkB0DTQUyXCmBIW9j52g8D/+r4CBo4uuv19PpUYIhdfr3119q291f8e3WxWviC7EwesAwUbYCAZg4LgMrCW6tNh5fv1dXXi/FF2jBNBf9XiGJ4emfSVeVuBFAkX7Qf3cnT305xrsMyo3RHN6VZeTrneUOXVdsLwCje+Pu8Dhe3xfGwNHF10v/TFCdBmBJYSTbjsrLqVASfahT8ye6vFnQzEj5zRAEyC6BhjpJaC0gfiCARiAgc0wsK7oeqhvewgkxIo59bHXxa06LWC+vx7qab8TdU4nLVL86/VzaqK8PX2y3Grx4JsKTqDya6A+5eqKpNeiK387MlvXjrO2d0TXhhRybfAwns0sGvkkCP/YBgZeMbCm6FJOUHVvy7lxi1MgLUJ8HXkS1FP/VS7vCAXZ7kmdRP9uTKk2O+007DVjFgrOCsW2/OOnK9RcP7rvWBCm+q7lWsYGbj7RODnpigySMxTXSeQwAAMwsA8G1hRd8pkleaqTEyqyzOkkTpZGLvYBu3HdWGTFn3PrZNxOWy4cs2BGlzdarEd0ZdoMxp8bzxrXR44X0bWGk+iTEyUYgAEYWI2BWkSXG4cRI0KICNETCpgdiC59imXmm/nXjmLu1QotGbuILqGqpWH4ebUEt4nAgQ/4gIHDMODEzhw+HyESQgElbukFIqS5bWj/VV9YR4iu9nmu189xJdbEWCgE/etxhf+qMJ/D5Xh8P+GY/fWT6FeXSd1GzNadw1dLtCHmlLeTtwEnXUs4gTYPk7yHBBllfMLBFtiiBgbWFF3iSafgF7TqMTWvp3p8fbsH2UMREokcI5ZsvfDXNiTtHJU3NdvnrXz/3+o+UkhagWj7DMcsmI8EiukzeH5LCNGtrKPRnKwNcu+Irq04lnEi5GAABmBgFgbWEl25hXjb15uTuUknbhHP2i/ymbdN2AXRJVR15NBNOJAxz5JU8TVxAAMwkGNgz6LLnB75wy/xU+YZqlnWHH1C9Wb7I07Xcn5d5Tqii0SzCnizBC6+w3cwAAMwAAP7ZYDbi4gFTpZgAAZgAAZgAAYKMIDoKmBkdi373bXgW3wLAzAAAzAwlAFEF6KL3Q0MwAAMwAAMwEABBhBdBYw8VAFTjt0SDMAADMAADOyXAUQXoovdDQzAAAzAAAzAQAEGEF0FjMyuZb+7FnyLb2EABmAABoYygOhCdLG7gQEYgAEYgAEYKMAAoquAkYcqYMqxW4IBGICB5RmY9ZejsoYg1kYwgOgaYSyS4fLJEBtjYxiAgaUZQHTB2NKM5dpHdCG62KXAAAzAwKEYQHQhunKiaOnriC6S7aGS7dIBRfskcxionwFEV/0+2mscIboQXYguGIABGDgUA7OKrq3+oWaYn4f5X2d1vZ7Vx0B7IroGGmqvqpt5seODARg4GgOILpifjXlEFzDNBhOCdJ6dEHbEjjBQFQNziC7dRvf1re7a13ohvt3Urf3v8tuuS5/qIq5fzx/OLh/nqyt/u13Up2MmX+fz4vu4ydOWbP8nlaszpf9snQ32P9Zn4dytH67q/Mv6Ov3OSZcDO20gBAx2gQEYgIF9MTCH6HJMcHvRCUdnkyOtq5x07Ss5HBLiIwUscz12wsb/q/gf0cU6OdvaiugCptlgYkFYZUHAf8QwDCzLwKyiizxJnhzBALcXRxiLRLhsIsS+2BcGYKAEA4guOCvBWaoPRBeii10KDMAADByKAUQXoisliEpcQ3SRbA+VbEsEFX2Q0GEABmAABlIMILoQXYguGIABGIABGICBAgwgugoYOaV2ucYuCAZgAAZgAAaOxQCiC9HF7gYGYAAGYAAGYKAAA4iuAkZmJ3OsnQz+xt8wAAMwAAMpBhBdiC52NzAAAzAAAzAAAwUYQHQVMHJK7XKNXRAMwAAMwAAMHIsBRBeii90NDMAADMAADMBAAQYQXQWMzE7mWDsZ/I2/YaBuBvjlqHX7Z8/xg+hCdLG7gQEYgIFDMYDoQnStJewQXSTbQyXbtQKNfknyMFAPA4iuenxxtLhAdCG6EF0wAAMwcCgGEF2IrrXEHqKLZHuoZLtWoNEvSR4G6mEA0VWPL44WF4guRBeiCwZgAAYOxQCiC9G1lthDdJFsD5Vs1wo0+iXJw0A9DCC66vHF0eIC0YXoQnTBAAzAwKEYQHQhutYSe4guku2hku1agUa/JHkYqIcBRFc9vjhaXCC6EF2ILhiAARg4FAOILkTXWmIP0UWyPVSyXSvQ6JckDwP1MIDoqscXR4sLRBeiC9EFAzAAA4diANGF6FpL7CG6SLaHSrZrBRr9kuRhAAZgAAYQXYguRBcMwAAMwAAMwEABBhBdBYzM7obdDQzAAAzAAAzAAKIL0cXuBgZgAAZgAAZgoAADiK4CRmZ3w+4GBmAABmAABmAA0YXoYncDAzAAAzAAAzBQgAFEVwEjs7thdwMDMAADMAADMIDoQnSxu4EBGIABGIABGCjAAKKrgJHZ3bC7gQEYgIF6GOCXo9bji6PFBaIL0cXuBgZgAAYOxQCiC9G1lthDdJFsD5Vs1wo0+iXJw0A9DCC66vHF0eIC0YXoQnTBAAzAwKEYQHQhutYSe4guku2hku1agUa/JHkYqIcBRFc9vjhaXCC6EF2ILhiAARg4FAOILkTXWmIP0UWyPVSyXSvQ6JckDwP1MIDoqscXR4sLRBeiC9EFAzAAA4diANGF6FpL7CG6SLaHSrZrBRr9kuRhoB4GEF31+OJocYHoQnQhumAABmDgUAwguhBda4k9RBfJ9lDJdq1Ao1+SPAzUwwCiqx5fHC0uEF2ILkQXDMAADByKAUQXomstsYfoItkeKtmuFWj0S5KHARiAARhAdCG6EF0wAAMwAAMwAAMFGEB0FTAyuxt2NzAAAzAAAzAAA4guRBe7GxiAARiAARiAgQIMILoKGJndDbsbGIABGIABGIABRBeii90NDMAADMAADMBAAQYQXQWMzO6G3Q0MwAAMwAAMwACiC9HF7gYGYAAGYAAGYKAAA4iuAkZmd8PuBgZgAAbqYYBfjlqPL44WF4guRBe7GxiAARg4FAOILkTXWmIP0UWyPVSyXSvQ6JckDwP1MIDoqscXR4sLRBeiC9EFAzAAA4diANGF6FpL7CG6SLaHSrZrBRr9kuRhoB4GEF31+OJocYHoQnQhumAABmDgUAwguhBda4k9RBfJ9lDJdq1Ao1+SPAzUwwCiqx5fHC0uEF2ILkQXDMAADByKAUQXomstsYfoItkeKtmuFWj0S5KHgXoYQHTV44ujxQWiC9GF6IIBGICBQzGA6EJ0rSX2EF0k20Ml27UCjX5J8jBQDwOIrnp8cbS4QHQhuhBdMAADMHAoBhBdiK61xB6ii2R7qGS7VqDRL0keBmAABmAA0YXoQnTBAAzAAAzAAAwUYADRVcDI7G7Y3cAADMAADMAADCC6EF3sbmAABmAABmAABgowgOgqYGR2N+xuYAAGYAAGYAAGEF2ILnY3MAADMAADMAADBRhAdBUwMrsbdjcwAAMwAAMwAAOILkQXuxsYgAEYgAEYgIECDCC6ChiZ3Q27GxiAARioh4HPy01dftczHtg4ji8QXYgudjcwAAMwcCgGEF3HETm1CVpEF8n2UMm2tgBkPCR/GCjPAKKrvM3hvLE5ogvRheiCARiAgUMxgOhCdK0lAtcRXf98K/VzP1SQr+XgKvv9dVbX61l9sNDNEgMsIEdYQD7U+XpV519HmOvycyRmlrdxlWtPBWsOoqsCJxwOTkTXLGLLcsMCcoQFBNFleZ/jnZg5QszUOceiouv+oxKvb3XXwkcvxLeburX/yX9ZogPEXr+JE5KP89Vfv13UpxNQn+oi2rqeP9wil62zwf7zNpsw/1O+Ts7++f5PKlUntL31Kbv3aYtI6C8XH5dPw3rK/qafLOdhe4NipgAzeswhN+XjPM/5BJtl7Z+Ombhv62fpn2n81LkglZqLjg+5xpTql36OzZ32f1HR5YDj9qITgc4mTjAeAEq98AjxfEgbzOhvFpADxMyJk6458wQxc4SYqXOOiK4ZF785k8Ku20J0zSq6WUDqTK7zxjCia057EjNHiJk657iO6ELozLrozpmMaKvOQMUv+AUG5mMA0TWfLeFynC0RXQhABCAMwAAMHIoBRNc4oYCwms9eiC6S7aGSLcljvuSBLbHlVhlAdMHuWuwiuhBdiC4YgAEYgAEYgIECDCC6Chh5LUVNv+zmYAAGYAAGYKAeBhBdiC52NzAAAzAAAzAAAwUYQHQVMDK7jHp2GfgCX8AADMAADKzFAKIL0cXuBgZgAAZgAAZgoAADiK4CRl5LUdMvuzkYgAEYgAEYqIcBRBeii90NDMAADMAADMBAAQYQXQWMzC6jnl0GvsAXMAADMAADazGwjujiD14fe0fx56Gez4f6i+A9Ngf4H//DAAwcjAFE18Ecvpa6D/pFdJFoiTsYgAEYOCADOxRdf9Xj+VSPP/749O/XUz2//hYDXPcnXyX7DsRNrUAjuoqxuAkeauWUccEpDMDAzAwgumY2qF7kQpF3V98qFIGHXwhfiS5uP5PoFojLw8cdNiWuYGB1Bo4nuvSC7l5SDOkTMveF+v7HnpRp0fStHuL0yn9ny4TvXdH1re4t7Pcf34dS8vpTPb782MLTMT0G/3rVf/WLS4/oak4JvV2qnwtJbPUkBiNh/sEer+3BH7x+bSM4WsZGBxNd3VuPFiwthryYkadTjeBxIqhHMNi24tuLvt3IieJEx4gx+3C57sMJskYMZtvY4qKfsaGxm7XBFufFmBFgMLAJBhBd0VoEt8W4PZjoOil70hSKmPAkqTlTsqdg+rtxJy/dky7bVnPr0Z9ZKaV+7sbZXdHX9pkRKFbgbfI9MSfjl9YW8Zw+zld1u93a/y7q0yaIX2d1dddv6vLbJxKdVF2d61l9tHWybZ0+1UW0dT1/uCDM1pnQ/ylbZ0L/PWPOzT/f/0nl6mTnX3H/2TFn7Z+ff95ma/ts7f7zNsvav4eZbJ3ZfBbay+WHy6eL9Tj38NnnVGwxjy0OJ7osOKH46hNWfd+lnRCKrkboGZFnTrC8ADtFJ11eCIo+EwLFzmGz75k5cdKV5mmzfrbimHcW9coY4KSLXLNWXt2h6GpEjrsdeNICRggdEfxSHGkR5utIIIUAEnX7HCbbPcn+jeiyp2btM2SvTrpMfXnrU45toz9nRJe2qRFeI08W+3zBdxtlZGCs4V/8O4UBRBfcTOFmjjq7FF2N0PE38byY0gJKvqwA0gBG37lni6aJrqAX91C+v72ptBDUD86/FF0ndTJizbfoT8Q2Gjg9ostALU4A54CcNjbKCcKLEzIYgIGdMbBT0cUiU7XQeCW6dhZkVfsCW7OowQAMwEAxBhBdk2CLTsX8IZQ7uWKh7RG+iK5iAQ6HPRxOin3agykYgIHpDKwjukh2LLowAAMwAAMwAAMHYwDRdTCHs0OZvkPBdtgOBmAABmDgHQYQXYgudlowAAMwAAMwAAMFGEB0FTDyO6qYuuyqYAAGYAAGYGAfDCC6EF3sbmAABmAABmAABgowgOgqYGR2KPvYoeBH/AgDMAADMPAOA4guRBe7GxiAARiAARiAgQIMILoKGPkdVUxddlUwAAMwAAMwsA8GEF2ILnY3MAADMAADMAADBRhAdBUwMjuUfexQ8CN+hAEYgAEYeIcBRBeii90NDMAADMAADMBAAQYQXQWM/I4qpi67KhiAARiAARjYBwPriK5/vvnD0EcWe7/O6no9q48j24C5s6uGARiAgcMxgOgC+vLQI7rK2xzOsTkMwAAMrM5AUdF1/1GJ17e6axD0Qny7qVv73+W3P0r8vPjrN3FC8nG+uvK320V9OqA+1UW0dT1/OENn62yw/7zNJsz/lK+Ts3++/5NK1Qltb316Vedf3tccoWMLGIABGICBvTJQVHQ5I3J70YlAZxMnGA8QbJx0Hdv/R2KducI6DMCAYADRJYxxSAG0xvwRXSShNbijT7iDARhYmYF1RNfKk0ZcHeA0DcZIrjAAAzAAA5UxgOiqzCEIQgQhDMAADMAADOyTAUQXooudEAzAAAzAAAzAQAEGEF0FjMyOZZ87FvyKX2EABmAABsYwgOhCdLG7gQEYgAEYgAEYKMAAoquAkceoYMqya4IBGIABGICBfTKA6EJ0sbuBARiAARiAARgowACiq4CR2bHsc8eCX/ErDMAADMDAGAYQXYgudjcwAAMwAAMwAAMFGEB0FTDyGBVMWXZNMAADMAADMLBPBhBdiC52NzAAAzAAAzAAAwUYWEd08Qevjw33n4d6Ph/qbwHA2S3uc7eIX/ErDMDAFhlAdA1c+P9+PZWaVSjc1bf6VveB/afhmqONFQIX0XVs0f0W8yvwynjhFQZgYCYGEF0DDflSdI06vfurHk+lvv/xC4hpX4mXFXiRQLn/KKV+7j4AdL+27MC5pAWcH8vi30dzWry/rdiFcXqusQW2gAEY2CEDiK65nDpCdBmBJYXT6aT0tefX326QSYGS6UMLsWTdueY2dztyTnO3TXtdhrAJNoEBGICBKhioX3RFC3QgTrQIca+nevzxpzXmRKj9zgsSfcL0VI8vX89/5+uGJy/6Fp5tKHoOSY/NfqffIyEVtmPbb8cgxqrLBfOSweHm33Mr0ZWxfVT+vrXxSn/wcxWJKx1blXMPO7ADA4dnYMOiKy1eugJG3sprfvbiqEfIxMHREQq6rhB6mVOozuLQaadZKMzpV0rAteUfP6KveGynaCyd7ytbjDI26Niq9nkwvsMnUJitLLcQk8Rk5QxsWHSdlD3Nks9GnU6tsJICRtnnp/JC7WXyjIVCLLLizznHx+205XpPusxc+kTXG/PKjXPJ6xkbvPTBkmOibZI1DMAADMDAwgxsWnTZRToUX30CpO+7Fzu2WCjEIiv+nHNc3E5brld06Qfldb3sv3YccWKXG1fJ6xkbWH/y/oLFkr6iLxYhGIABGJiNgW2ILis2jPBIPzQuRYu5VZd8vmpG0RWIIC16ln6mq3nuK/kvFbcmYrY2XhLObAkHQY2ghgEYODID9Yuuk7+NqNS3erh/5dcKHXcbUf7OKy2u3Bf65mL7+7AmiK5W6MnW7DNh9oTNtD/0pKt9aN62YeGTotFeM++RQDF9Rr8iQl97/Q8CKgr0aE7BfBE4CBwYgAEYgIGdMrAJ0bW/RbkRheGzaBNFkRZ7kQir3l6ILhLqThNq9bGH3Yk9GFiVAURXcJIWnGeJE7KJgqgX7jmew5qjjSXm9qJNRNeqQY8weMFnb9xSF35gAAamM7CO6CKpsejCAAzAAAzAAAwcjAFE18Eczg5l+g4F22E7GIABGICBdxhAdCG62GnBAAzAAAzAAAwUYADRVcDI76hi6rKrggEYgAEYgIF9MIDoQnSxu4EBGIABGIABGCjAAKKrgJHZoexjh4If8SMMwAAMwMA7DCC6EF3sbmAABmAABmAABgowgOgqYOR3VDF12VXBAAzAAAzAwD4YWEd0jfiTOYC2D9ACP/LLUdlRstmBARiAgQMygOga6HTzR7Rn/XM7c/w2+TnaWEHUIbpItgPjLhDr1IEbGICBjTNQv+iqZIF+KbpGnd51//aiaV/+FSIr8KL5mz94/XP3gcffXvS22HgwIjBW2ADADPEDAzBQkAFE11zGHiG6jMCSwul0Uvra8+tvF34pujJ9aCGWrDvX3OZuR85p7rZpr8sQNsEmMAADMFAFA5sRXY8fewz0re4tPObUx15W/roWMN9fD/W03wUCpzllsl+9Fiv6Fl77sqdPFl4tHux3+j3oJ7dr1/0/1eNP+P1r0dVzK3FrImZr47X+5r2KpMWJYJg7sAf2gIHtMLAN0aWU+v6nMWrqlMgAJ06BTBknwrRY8SJn8qlQRyiE7Z5E/70B0GlHzCsl4Nryjx8/h2770VhqFwcZG3TntZ1AYuz4CgZgAAZg4BUD2xBd8oRJLNiNuBJKpT1pCk+N5MlSz2nRK6Ei+jVGjUVW/DnXXtxOWy4cswBXlzdT7BNdco6ibm4Ma1/P2OAVrHy/Ad+uzRb9cxoJAzBQMQPbE11W3BgxIoSIvd55PkoKko2KLi06zXz9LdRQgLwxrzXgRHSRFNfgjj7hDgZgYGUGNie63O3BQIRoYeWfqQpPjaToasq9fo4rcaIQC4Wgfy16fP+hIIrbkuPx34Vj9tdPol9dRslTPwuPKNPft2jX1l3jfWvjXcNG9MniAAMwAAO7Y2AbokvcQZQPq/sH6Z/q8fXtHmQPBUwsclqB1Lb5UoAZcSUH4MWV7/9b3cVJ2yvhY8RT9NB9OGYhjiKBYvqMhJcTolsJ0GhOr+zF94KHrfiYce5usSAOiUMYeJ+B+kXXLpN3c+Jm/3HAWyBrsReJsLfaK2FvRBcLcgnO6APOYAAGKmMA0XU6KX9iFZ1ouX8B+b667QqhOZ7DmqONJeb2ok1EF4mwskTYjc8XDDN+GIYBGJjAwDqia8JASYosAjAAAzAAAzAAA1tmANGFAGS3AgMwAAMwAAMwUIABRFcBI29ZlTN2dpUwAAMwAAMwMA8DiC5EF7sbGIABGIABGICBAgwgugoYmR3CPDsE7IgdYQAGYAAGtswAogvRxe4GBmAABmAABmCgAAOIrgJG3rIqZ+zsKmEABmAABmBgHgYQXYgudjcwAAMwAAMwAAMFGEB0FTAyO4R5dgjYETvCAAzAAAxsmQFEF6KL3Q0MwAAMwAAMwEABBhBdBYy8ZVXO2NlVwgAMwAAMwMA8DCC6EF3sbmAABmAABmAABgowsI7o+udbqZ87Di7g4Cp3J7/O6no9q4+jzp95E/swAAMwcEgGEF2AXx58RFd5m8M5NocBGICB1RkoKrruPyrx+lZ3DYJeiG83dWv/u/z2908/L/76TZyQfJyvrvztdlGfDqhPdRFtXc8fztDZOhvsP2+zCfM/5evk7J/v/6RSdULbW59e1fmX93WVJ3OOK8aJf2AABmAABqYzUFR0OUdxe9GJQGeTIy3snHQd2/9HYp25wjoMwIBgANEljHFIAbTG/BFdJKE1uKNPuIMBGFiZgXVE18qTRlxNPxrFdtgOBmAABmAABqYxgOhCALLzgQEYgAEYgAEYKMAAoquAkdkRTNsRYDfsBgMwAAMwsCcGEF2ILnY3MAADMAADMAADBRhAdBUw8p5UOnNh1wkDMAADMAAD0xhAdCG62N3AAAzAAAzAAAwUYADRVcDI7Aim7QiwG3aDARiAARjYEwOILkQXuxsYgAEYgAEYgIECDCC6Chh5TyqdubDrhAEYgAEYgIFpDCC6EF3sbmAABmAABmAABgowgOgqYGR2BNN2BNgNu8EADMAADOyJAUQXoovdDQzAAAzAAAzAQAEGEF0FjLwnlc5c2HXCAAzAAAzAwDQGEF2ILnY3MAADMAADMAADBRhAdBUwMjuCaTsC7IbdYAAGYAAG9sQAogvRxe4GBmAABmAABmCgAAN9ouv/B8a/+0mgXfjUAAAAAElFTkSuQmCC;" parent="1" vertex="1">
          <mxGeometry x="-566.5" y="400" width="537.39" height="620" as="geometry" />
        </mxCell>
        <mxCell id="64vca7mQy0O2EGLLcNTx-2" value="" style="rounded=1;whiteSpace=wrap;html=1;" vertex="1" parent="1">
          <mxGeometry x="-590" y="1380" width="930" height="540" as="geometry" />
        </mxCell>
        <mxCell id="64vca7mQy0O2EGLLcNTx-3" value="RoomA" style="text;html=1;align=center;verticalAlign=middle;resizable=0;points=[];autosize=1;strokeColor=none;fillColor=none;" vertex="1" parent="1">
          <mxGeometry x="-155" y="1350" width="60" height="30" as="geometry" />
        </mxCell>
        <mxCell id="64vca7mQy0O2EGLLcNTx-4" value="BenchAA" style="rounded=1;whiteSpace=wrap;html=1;" vertex="1" parent="1">
          <mxGeometry x="-520" y="1510" width="300" height="130" as="geometry" />
        </mxCell>
        <mxCell id="64vca7mQy0O2EGLLcNTx-5" value="BenchAB" style="rounded=1;whiteSpace=wrap;html=1;" vertex="1" parent="1">
          <mxGeometry x="-70" y="1510" width="300" height="130" as="geometry" />
        </mxCell>
        <mxCell id="64vca7mQy0O2EGLLcNTx-6" value="BenchAC" style="rounded=1;whiteSpace=wrap;html=1;" vertex="1" parent="1">
          <mxGeometry x="-520" y="1710" width="300" height="130" as="geometry" />
        </mxCell>
        <mxCell id="64vca7mQy0O2EGLLcNTx-7" value="BenchAD" style="rounded=1;whiteSpace=wrap;html=1;" vertex="1" parent="1">
          <mxGeometry x="-70" y="1710" width="300" height="130" as="geometry" />
        </mxCell>
        <mxCell id="64vca7mQy0O2EGLLcNTx-8" value="UserA" style="shape=umlActor;verticalLabelPosition=bottom;verticalAlign=top;html=1;outlineConnect=0;" vertex="1" parent="1">
          <mxGeometry x="-470" y="1420" width="30" height="60" as="geometry" />
        </mxCell>
        <mxCell id="64vca7mQy0O2EGLLcNTx-9" value="UserB" style="shape=umlActor;verticalLabelPosition=bottom;verticalAlign=top;html=1;outlineConnect=0;" vertex="1" parent="1">
          <mxGeometry x="-320" y="1420" width="30" height="60" as="geometry" />
        </mxCell>
        <mxCell id="64vca7mQy0O2EGLLcNTx-14" value="UserB" style="shape=umlActor;verticalLabelPosition=bottom;verticalAlign=top;html=1;outlineConnect=0;" vertex="1" parent="1">
          <mxGeometry x="85" y="1430" width="30" height="60" as="geometry" />
        </mxCell>
        <mxCell id="64vca7mQy0O2EGLLcNTx-15" value="" style="rounded=1;whiteSpace=wrap;html=1;" vertex="1" parent="1">
          <mxGeometry x="450" y="1380" width="930" height="540" as="geometry" />
        </mxCell>
        <mxCell id="64vca7mQy0O2EGLLcNTx-16" value="RoomB" style="text;html=1;align=center;verticalAlign=middle;resizable=0;points=[];autosize=1;strokeColor=none;fillColor=none;" vertex="1" parent="1">
          <mxGeometry x="885" y="1350" width="60" height="30" as="geometry" />
        </mxCell>
        <mxCell id="64vca7mQy0O2EGLLcNTx-17" value="BenchA" style="rounded=1;whiteSpace=wrap;html=1;" vertex="1" parent="1">
          <mxGeometry x="520" y="1510" width="300" height="130" as="geometry" />
        </mxCell>
        <mxCell id="64vca7mQy0O2EGLLcNTx-18" value="BenchB" style="rounded=1;whiteSpace=wrap;html=1;" vertex="1" parent="1">
          <mxGeometry x="970" y="1510" width="300" height="130" as="geometry" />
        </mxCell>
        <mxCell id="64vca7mQy0O2EGLLcNTx-19" value="BenchC" style="rounded=1;whiteSpace=wrap;html=1;" vertex="1" parent="1">
          <mxGeometry x="520" y="1710" width="300" height="130" as="geometry" />
        </mxCell>
        <mxCell id="64vca7mQy0O2EGLLcNTx-20" value="BenchD" style="rounded=1;whiteSpace=wrap;html=1;" vertex="1" parent="1">
          <mxGeometry x="970" y="1710" width="300" height="130" as="geometry" />
        </mxCell>
        <mxCell id="64vca7mQy0O2EGLLcNTx-21" value="UserA" style="shape=umlActor;verticalLabelPosition=bottom;verticalAlign=top;html=1;outlineConnect=0;" vertex="1" parent="1">
          <mxGeometry x="570" y="1420" width="30" height="60" as="geometry" />
        </mxCell>
        <mxCell id="64vca7mQy0O2EGLLcNTx-22" value="UserB" style="shape=umlActor;verticalLabelPosition=bottom;verticalAlign=top;html=1;outlineConnect=0;" vertex="1" parent="1">
          <mxGeometry x="720" y="1420" width="30" height="60" as="geometry" />
        </mxCell>
        <mxCell id="64vca7mQy0O2EGLLcNTx-23" value="UserB" style="shape=umlActor;verticalLabelPosition=bottom;verticalAlign=top;html=1;outlineConnect=0;" vertex="1" parent="1">
          <mxGeometry x="1125" y="1430" width="30" height="60" as="geometry" />
        </mxCell>
        <mxCell id="64vca7mQy0O2EGLLcNTx-25" style="edgeStyle=orthogonalEdgeStyle;rounded=0;orthogonalLoop=1;jettySize=auto;html=1;" edge="1" parent="1" source="64vca7mQy0O2EGLLcNTx-24" target="64vca7mQy0O2EGLLcNTx-8">
          <mxGeometry relative="1" as="geometry" />
        </mxCell>
        <mxCell id="64vca7mQy0O2EGLLcNTx-24" value="UserA&lt;div&gt;ProjectA&lt;/div&gt;&lt;div&gt;BenchAA&lt;/div&gt;&lt;div&gt;EquipmentAA0&lt;/div&gt;&lt;div&gt;BenchAD&lt;/div&gt;&lt;div&gt;EquipmentAD0&lt;/div&gt;" style="text;html=1;align=center;verticalAlign=middle;resizable=0;points=[];autosize=1;strokeColor=none;fillColor=none;" vertex="1" parent="1">
          <mxGeometry x="-790" y="1400" width="100" height="100" as="geometry" />
        </mxCell>
        <mxCell id="64vca7mQy0O2EGLLcNTx-27" style="edgeStyle=orthogonalEdgeStyle;rounded=0;orthogonalLoop=1;jettySize=auto;html=1;entryX=0;entryY=0.5;entryDx=0;entryDy=0;" edge="1" parent="1" source="64vca7mQy0O2EGLLcNTx-26" target="64vca7mQy0O2EGLLcNTx-4">
          <mxGeometry relative="1" as="geometry" />
        </mxCell>
        <mxCell id="64vca7mQy0O2EGLLcNTx-26" value="BenchA&lt;div&gt;RoomA&lt;/div&gt;&lt;div&gt;&lt;br&gt;&lt;/div&gt;" style="text;html=1;align=center;verticalAlign=middle;resizable=0;points=[];autosize=1;strokeColor=none;fillColor=none;" vertex="1" parent="1">
          <mxGeometry x="-785" y="1510" width="70" height="60" as="geometry" />
        </mxCell>
        <mxCell id="64vca7mQy0O2EGLLcNTx-30" style="edgeStyle=orthogonalEdgeStyle;rounded=0;orthogonalLoop=1;jettySize=auto;html=1;exitX=0.5;exitY=0;exitDx=0;exitDy=0;" edge="1" parent="1" source="64vca7mQy0O2EGLLcNTx-28">
          <mxGeometry relative="1" as="geometry">
            <mxPoint x="-305" y="1480" as="targetPoint" />
            <Array as="points">
              <mxPoint x="-370" y="1520" />
              <mxPoint x="-370" y="1500" />
              <mxPoint x="-305" y="1500" />
            </Array>
          </mxGeometry>
        </mxCell>
        <mxCell id="64vca7mQy0O2EGLLcNTx-31" style="edgeStyle=orthogonalEdgeStyle;rounded=0;orthogonalLoop=1;jettySize=auto;html=1;" edge="1" parent="1" source="64vca7mQy0O2EGLLcNTx-28" target="64vca7mQy0O2EGLLcNTx-8">
          <mxGeometry relative="1" as="geometry" />
        </mxCell>
        <mxCell id="64vca7mQy0O2EGLLcNTx-28" value="EquipmentAA0" style="ellipse;whiteSpace=wrap;html=1;" vertex="1" parent="1">
          <mxGeometry x="-500" y="1520" width="90" height="40" as="geometry" />
        </mxCell>
        <mxCell id="64vca7mQy0O2EGLLcNTx-29" value="EquipmentAA1" style="ellipse;whiteSpace=wrap;html=1;" vertex="1" parent="1">
          <mxGeometry x="-335" y="1520" width="95" height="40" as="geometry" />
        </mxCell>
        <mxCell id="64vca7mQy0O2EGLLcNTx-33" style="edgeStyle=orthogonalEdgeStyle;rounded=0;orthogonalLoop=1;jettySize=auto;html=1;entryX=0.5;entryY=1;entryDx=0;entryDy=0;" edge="1" parent="1" source="64vca7mQy0O2EGLLcNTx-32" target="64vca7mQy0O2EGLLcNTx-28">
          <mxGeometry relative="1" as="geometry" />
        </mxCell>
        <mxCell id="64vca7mQy0O2EGLLcNTx-32" value="EquipmentA&lt;div&gt;BenchA&lt;/div&gt;&lt;div&gt;UserA&lt;/div&gt;&lt;div&gt;UserB&lt;/div&gt;&lt;div&gt;&lt;br&gt;&lt;/div&gt;" style="text;html=1;align=center;verticalAlign=middle;resizable=0;points=[];autosize=1;strokeColor=none;fillColor=none;" vertex="1" parent="1">
          <mxGeometry x="-785" y="1605" width="90" height="90" as="geometry" />
        </mxCell>
        <mxCell id="64vca7mQy0O2EGLLcNTx-35" value="&lt;font color=&quot;#ff3333&quot; style=&quot;font-size: 24px;&quot;&gt;MOCK UP&lt;/font&gt;" style="text;html=1;align=center;verticalAlign=middle;resizable=0;points=[];autosize=1;strokeColor=none;fillColor=none;" vertex="1" parent="1">
          <mxGeometry x="-570" y="1260" width="140" height="40" as="geometry" />
        </mxCell>
        <mxCell id="64vca7mQy0O2EGLLcNTx-36" value="&lt;font color=&quot;#ff3333&quot; style=&quot;font-size: 24px;&quot;&gt;USER STORIES&lt;/font&gt;" style="text;html=1;align=center;verticalAlign=middle;resizable=0;points=[];autosize=1;strokeColor=none;fillColor=none;" vertex="1" parent="1">
          <mxGeometry x="-570" y="2020" width="200" height="40" as="geometry" />
        </mxCell>
        <mxCell id="64vca7mQy0O2EGLLcNTx-50" value="" style="shape=table;startSize=0;container=1;collapsible=0;childLayout=tableLayout;" vertex="1" parent="1">
          <mxGeometry x="-590" y="2120" width="950" height="333" as="geometry" />
        </mxCell>
        <mxCell id="64vca7mQy0O2EGLLcNTx-51" value="" style="shape=tableRow;horizontal=0;startSize=0;swimlaneHead=0;swimlaneBody=0;strokeColor=inherit;top=0;left=0;bottom=0;right=0;collapsible=0;dropTarget=0;fillColor=none;points=[[0,0.5],[1,0.5]];portConstraint=eastwest;" vertex="1" parent="64vca7mQy0O2EGLLcNTx-50">
          <mxGeometry width="950" height="83" as="geometry" />
        </mxCell>
        <mxCell id="64vca7mQy0O2EGLLcNTx-52" value="USER STORIES&amp;nbsp;" style="shape=partialRectangle;html=1;whiteSpace=wrap;connectable=0;strokeColor=inherit;overflow=hidden;fillColor=none;top=0;left=0;bottom=0;right=0;pointerEvents=1;" vertex="1" parent="64vca7mQy0O2EGLLcNTx-51">
          <mxGeometry width="475" height="83" as="geometry">
            <mxRectangle width="475" height="83" as="alternateBounds" />
          </mxGeometry>
        </mxCell>
        <mxCell id="64vca7mQy0O2EGLLcNTx-53" value="TASKS" style="shape=partialRectangle;html=1;whiteSpace=wrap;connectable=0;strokeColor=inherit;overflow=hidden;fillColor=none;top=0;left=0;bottom=0;right=0;pointerEvents=1;" vertex="1" parent="64vca7mQy0O2EGLLcNTx-51">
          <mxGeometry x="475" width="475" height="83" as="geometry">
            <mxRectangle width="475" height="83" as="alternateBounds" />
          </mxGeometry>
        </mxCell>
        <mxCell id="64vca7mQy0O2EGLLcNTx-54" value="" style="shape=tableRow;horizontal=0;startSize=0;swimlaneHead=0;swimlaneBody=0;strokeColor=inherit;top=0;left=0;bottom=0;right=0;collapsible=0;dropTarget=0;fillColor=none;points=[[0,0.5],[1,0.5]];portConstraint=eastwest;" vertex="1" parent="64vca7mQy0O2EGLLcNTx-50">
          <mxGeometry y="83" width="950" height="84" as="geometry" />
        </mxCell>
        <mxCell id="64vca7mQy0O2EGLLcNTx-55" value="En tant que&amp;nbsp; user je dois avoir une représentation architecturale des équipements afin de pourvoir en choisir un" style="shape=partialRectangle;html=1;whiteSpace=wrap;connectable=0;strokeColor=inherit;overflow=hidden;fillColor=none;top=0;left=0;bottom=0;right=0;pointerEvents=1;" vertex="1" parent="64vca7mQy0O2EGLLcNTx-54">
          <mxGeometry width="475" height="84" as="geometry">
            <mxRectangle width="475" height="84" as="alternateBounds" />
          </mxGeometry>
        </mxCell>
        <mxCell id="64vca7mQy0O2EGLLcNTx-56" value="&lt;ul&gt;&lt;li&gt;Implémenter une structure de donnée en base de données&lt;/li&gt;&lt;li&gt;Créer une route API qui récupère l&#39;ensemble de cette structure&lt;/li&gt;&lt;li&gt;Implémenter les composants pour chaque entité&lt;/li&gt;&lt;li&gt;Appeler ces composants imbriqués au lancement de la page designer&amp;nbsp;&lt;/li&gt;&lt;/ul&gt;" style="shape=partialRectangle;html=1;whiteSpace=wrap;connectable=0;strokeColor=inherit;overflow=hidden;fillColor=none;top=0;left=0;bottom=0;right=0;pointerEvents=1;" vertex="1" parent="64vca7mQy0O2EGLLcNTx-54">
          <mxGeometry x="475" width="475" height="84" as="geometry">
            <mxRectangle width="475" height="84" as="alternateBounds" />
          </mxGeometry>
        </mxCell>
        <mxCell id="64vca7mQy0O2EGLLcNTx-71" value="" style="shape=tableRow;horizontal=0;startSize=0;swimlaneHead=0;swimlaneBody=0;strokeColor=inherit;top=0;left=0;bottom=0;right=0;collapsible=0;dropTarget=0;fillColor=none;points=[[0,0.5],[1,0.5]];portConstraint=eastwest;" vertex="1" parent="64vca7mQy0O2EGLLcNTx-50">
          <mxGeometry y="167" width="950" height="83" as="geometry" />
        </mxCell>
        <mxCell id="64vca7mQy0O2EGLLcNTx-72" value="En tant que user je dois pouvoir m&#39;affecter un banc s&#39;il est rattaché à la salle elle même rattachée à mon projet afin de pouvoir avertir les autre utilisateurs&amp;nbsp;" style="shape=partialRectangle;html=1;whiteSpace=wrap;connectable=0;strokeColor=inherit;overflow=hidden;fillColor=none;top=0;left=0;bottom=0;right=0;pointerEvents=1;" vertex="1" parent="64vca7mQy0O2EGLLcNTx-71">
          <mxGeometry width="475" height="83" as="geometry">
            <mxRectangle width="475" height="83" as="alternateBounds" />
          </mxGeometry>
        </mxCell>
        <mxCell id="64vca7mQy0O2EGLLcNTx-73" value="" style="shape=partialRectangle;html=1;whiteSpace=wrap;connectable=0;strokeColor=inherit;overflow=hidden;fillColor=none;top=0;left=0;bottom=0;right=0;pointerEvents=1;" vertex="1" parent="64vca7mQy0O2EGLLcNTx-71">
          <mxGeometry x="475" width="475" height="83" as="geometry">
            <mxRectangle width="475" height="83" as="alternateBounds" />
          </mxGeometry>
        </mxCell>
        <mxCell id="64vca7mQy0O2EGLLcNTx-57" value="" style="shape=tableRow;horizontal=0;startSize=0;swimlaneHead=0;swimlaneBody=0;strokeColor=inherit;top=0;left=0;bottom=0;right=0;collapsible=0;dropTarget=0;fillColor=none;points=[[0,0.5],[1,0.5]];portConstraint=eastwest;" vertex="1" parent="64vca7mQy0O2EGLLcNTx-50">
          <mxGeometry y="250" width="950" height="83" as="geometry" />
        </mxCell>
        <mxCell id="64vca7mQy0O2EGLLcNTx-58" value="En tant que user administrateur je dois pouvoir editer n&#39;importe quelle entitée" style="shape=partialRectangle;html=1;whiteSpace=wrap;connectable=0;strokeColor=inherit;overflow=hidden;fillColor=none;top=0;left=0;bottom=0;right=0;pointerEvents=1;" vertex="1" parent="64vca7mQy0O2EGLLcNTx-57">
          <mxGeometry width="475" height="83" as="geometry">
            <mxRectangle width="475" height="83" as="alternateBounds" />
          </mxGeometry>
        </mxCell>
        <mxCell id="64vca7mQy0O2EGLLcNTx-59" value="" style="shape=partialRectangle;html=1;whiteSpace=wrap;connectable=0;strokeColor=inherit;overflow=hidden;fillColor=none;top=0;left=0;bottom=0;right=0;pointerEvents=1;" vertex="1" parent="64vca7mQy0O2EGLLcNTx-57">
          <mxGeometry x="475" width="475" height="83" as="geometry">
            <mxRectangle width="475" height="83" as="alternateBounds" />
          </mxGeometry>
        </mxCell>
        <mxCell id="64vca7mQy0O2EGLLcNTx-74" value="UserA" style="shape=umlActor;verticalLabelPosition=bottom;verticalAlign=top;html=1;outlineConnect=0;" vertex="1" parent="1">
          <mxGeometry x="-40" y="1650" width="30" height="60" as="geometry" />
        </mxCell>
        <mxCell id="64vca7mQy0O2EGLLcNTx-75" value="EquipmentAD0" style="ellipse;whiteSpace=wrap;html=1;" vertex="1" parent="1">
          <mxGeometry x="-70" y="1740" width="100" height="40" as="geometry" />
        </mxCell>
        <mxCell id="64vca7mQy0O2EGLLcNTx-76" value="UserA" style="shape=umlActor;verticalLabelPosition=bottom;verticalAlign=top;html=1;outlineConnect=0;" vertex="1" parent="1">
          <mxGeometry x="140" y="1650" width="30" height="60" as="geometry" />
        </mxCell>
        <mxCell id="64vca7mQy0O2EGLLcNTx-86" style="edgeStyle=orthogonalEdgeStyle;rounded=0;orthogonalLoop=1;jettySize=auto;html=1;exitX=1;exitY=0.25;exitDx=0;exitDy=0;entryX=0;entryY=0.5;entryDx=0;entryDy=0;" edge="1" parent="1" source="64vca7mQy0O2EGLLcNTx-87" target="64vca7mQy0O2EGLLcNTx-89">
          <mxGeometry relative="1" as="geometry" />
        </mxCell>
        <mxCell id="64vca7mQy0O2EGLLcNTx-87" value="Room Container" style="swimlane;whiteSpace=wrap;html=1;" vertex="1" parent="1">
          <mxGeometry x="-600" y="2670" width="400" height="270" as="geometry" />
        </mxCell>
        <mxCell id="64vca7mQy0O2EGLLcNTx-88" style="edgeStyle=orthogonalEdgeStyle;rounded=0;orthogonalLoop=1;jettySize=auto;html=1;exitX=1;exitY=0.5;exitDx=0;exitDy=0;entryX=0;entryY=0.5;entryDx=0;entryDy=0;" edge="1" parent="1" source="64vca7mQy0O2EGLLcNTx-89" target="64vca7mQy0O2EGLLcNTx-91">
          <mxGeometry relative="1" as="geometry" />
        </mxCell>
        <mxCell id="64vca7mQy0O2EGLLcNTx-89" value="Project Container" style="swimlane;whiteSpace=wrap;html=1;" vertex="1" parent="1">
          <mxGeometry x="-100" y="2670" width="320" height="140" as="geometry" />
        </mxCell>
        <mxCell id="64vca7mQy0O2EGLLcNTx-90" style="edgeStyle=orthogonalEdgeStyle;rounded=0;orthogonalLoop=1;jettySize=auto;html=1;exitX=1;exitY=0.5;exitDx=0;exitDy=0;entryX=0;entryY=0.5;entryDx=0;entryDy=0;" edge="1" parent="1" source="64vca7mQy0O2EGLLcNTx-91" target="64vca7mQy0O2EGLLcNTx-92">
          <mxGeometry relative="1" as="geometry" />
        </mxCell>
        <mxCell id="64vca7mQy0O2EGLLcNTx-91" value="User Container" style="swimlane;whiteSpace=wrap;html=1;" vertex="1" parent="1">
          <mxGeometry x="260" y="2670" width="320" height="81" as="geometry" />
        </mxCell>
        <mxCell id="64vca7mQy0O2EGLLcNTx-92" value="Bench Container" style="swimlane;whiteSpace=wrap;html=1;" vertex="1" parent="1">
          <mxGeometry x="640" y="2670" width="320" height="60" as="geometry" />
        </mxCell>
        <mxCell id="64vca7mQy0O2EGLLcNTx-93" value="Equipment Container" style="swimlane;whiteSpace=wrap;html=1;" vertex="1" parent="1">
          <mxGeometry x="1040" y="2670" width="320" height="50" as="geometry" />
        </mxCell>
        <mxCell id="64vca7mQy0O2EGLLcNTx-94" value="Fetch" style="text;html=1;align=center;verticalAlign=middle;resizable=0;points=[];autosize=1;strokeColor=none;fillColor=none;" vertex="1" parent="1">
          <mxGeometry x="-185" y="2700" width="50" height="30" as="geometry" />
        </mxCell>
        <mxCell id="64vca7mQy0O2EGLLcNTx-95" value="&lt;font style=&quot;font-size: 24px;&quot; color=&quot;#ff3333&quot;&gt;REACT ARCHITECTURE&lt;/font&gt;" style="text;html=1;align=center;verticalAlign=middle;resizable=0;points=[];autosize=1;strokeColor=none;fillColor=none;" vertex="1" parent="1">
          <mxGeometry x="-590" y="2595" width="300" height="40" as="geometry" />
        </mxCell>
        <mxCell id="64vca7mQy0O2EGLLcNTx-96" value="&lt;font color=&quot;#ff3333&quot; style=&quot;font-size: 72px;&quot;&gt;EKISIGN&lt;/font&gt;" style="text;html=1;align=center;verticalAlign=middle;resizable=0;points=[];autosize=1;strokeColor=none;fillColor=none;" vertex="1" parent="1">
          <mxGeometry x="-10" y="-110" width="320" height="100" as="geometry" />
        </mxCell>
      </root>
    </mxGraphModel>
  </diagram>
</mxfile>
